<svg width="125" height="131" viewBox="0 0 125 131" fill="none" xmlns="http://www.w3.org/2000/svg">
<g style="mix-blend-mode:multiply">
<path d="M64.2538 0.176169C51.694 -1.42022 42.1268 8.09842 36.1922 17.9695C28.0735 31.4754 15.188 40.0355 6.88781 52.9968C0.459114 63.0357 -2.6158 76.1313 2.7536 87.4179C5.92584 94.0851 8.6957 96.8023 10.1349 104.407C11.0913 109.467 11.3514 114.888 13.7357 119.65C21.409 134.974 35.2658 131.673 48.7202 127.559C59.9849 124.114 73.7668 124.765 83.6653 119.112C95.4503 112.382 102.075 97.0932 110.673 87.1121C120.78 75.3779 130.407 65.9879 121.45 51.0143C114.8 39.8975 108.074 20.159 96.9063 15.2038C87.9679 11.2371 69.3631 -1.41089 64.2538 0.174305V0.176169Z" fill="#E0D6C8"/>
</g>
</svg>
