<svg width="99" height="151" viewBox="0 0 99 151" fill="none" xmlns="http://www.w3.org/2000/svg">
<path d="M29.3935 3.04232C20.3579 1.35549 8.82019 17.5398 5.57778 24.4404C-1.08907 38.6312 3.90318 50.0958 6.61894 64.7953C9.24248 78.986 3.13141 88.3889 0.641351 101.825C-2.13994 116.841 4.34731 131.984 15.788 141.939C42.8048 165.443 61.3346 137.39 83.3957 123.518C93.8486 116.943 102.064 105.829 97.8919 92.6218C93.8728 79.8939 79.4179 74.4343 75.1392 61.738C69.9431 46.3132 70.2464 31.5358 60.6405 17.4716C54.5052 8.48981 41.1375 -6.44578 29.3911 3.03988L29.3935 3.04232Z" fill="#CC976E"/>
</svg>
