<svg width="302" height="104" viewBox="0 0 302 104" fill="none" xmlns="http://www.w3.org/2000/svg">
<path d="M140.225 46.575V64H136.475V46.575H140.225ZM146.35 46.475V47.525H130.35V46.475H146.35ZM146.35 47.45V50.4L146.1 50.375V50.1C146.1 49.3167 145.867 48.7 145.4 48.25C144.95 47.7833 144.333 47.5417 143.55 47.525V47.45H146.35ZM146.35 46.025V46.75L143.3 46.475C143.667 46.475 144.05 46.45 144.45 46.4C144.867 46.35 145.25 46.2917 145.6 46.225C145.95 46.1583 146.2 46.0917 146.35 46.025ZM136.55 62.175V64H134.55V63.75C134.55 63.75 134.6 63.75 134.7 63.75C134.817 63.75 134.875 63.75 134.875 63.75C135.308 63.75 135.675 63.6 135.975 63.3C136.292 62.9833 136.458 62.6083 136.475 62.175H136.55ZM140.15 62.175H140.225C140.242 62.6083 140.4 62.9833 140.7 63.3C141.017 63.6 141.392 63.75 141.825 63.75C141.825 63.75 141.875 63.75 141.975 63.75C142.092 63.75 142.15 63.75 142.15 63.75V64H140.15V62.175ZM133.125 47.45V47.525C132.358 47.5417 131.742 47.7833 131.275 48.25C130.825 48.7 130.6 49.3167 130.6 50.1V50.375L130.35 50.4V47.45H133.125ZM130.35 46.025C130.517 46.0917 130.767 46.1583 131.1 46.225C131.45 46.2917 131.833 46.35 132.25 46.4C132.667 46.45 133.05 46.475 133.4 46.475L130.35 46.75V46.025Z" fill="#1D2826"/>
<path d="M153.6 46.15C153.933 46.15 154.341 46.1667 154.825 46.2C155.325 46.2333 155.833 46.2833 156.35 46.35C156.883 46.4 157.341 46.4583 157.725 46.525C158.125 46.575 158.4 46.6333 158.55 46.7L158.25 50.075H158C158 49.2083 157.675 48.5167 157.025 48C156.391 47.4667 155.541 47.2 154.475 47.2C153.508 47.2 152.725 47.4333 152.125 47.9C151.541 48.3667 151.233 48.9333 151.2 49.6C151.183 50.1 151.341 50.5333 151.675 50.9C152.008 51.2667 152.433 51.6083 152.95 51.925L157.725 55.025C158.491 55.4583 159.066 56.025 159.45 56.725C159.85 57.425 160.025 58.2417 159.975 59.175C159.891 60.8083 159.266 62.0833 158.1 63C156.933 63.9 155.35 64.35 153.35 64.35C152.616 64.35 151.9 64.2833 151.2 64.15C150.516 64.0333 149.908 63.8667 149.375 63.65C148.841 63.4167 148.416 63.1417 148.1 62.825C147.966 62.4583 147.908 62.0167 147.925 61.5C147.941 60.9833 148.016 60.4583 148.15 59.925C148.3 59.3917 148.483 58.95 148.7 58.6H148.925C148.858 59.45 149.008 60.2417 149.375 60.975C149.758 61.6917 150.308 62.2667 151.025 62.7C151.758 63.1167 152.625 63.3167 153.625 63.3C154.725 63.2833 155.575 63.0083 156.175 62.475C156.775 61.925 157.075 61.2667 157.075 60.5C157.075 59.9833 156.916 59.5167 156.6 59.1C156.3 58.6833 155.8 58.2833 155.1 57.9L150.725 55C149.841 54.5 149.2 53.8583 148.8 53.075C148.4 52.2917 148.241 51.4417 148.325 50.525C148.408 49.6583 148.666 48.9 149.1 48.25C149.533 47.5833 150.125 47.0667 150.875 46.7C151.641 46.3333 152.55 46.15 153.6 46.15ZM158.575 46.4L158.525 46.925H155.575V46.4H158.575Z" fill="#1D2826"/>
<path d="M169.978 46L178.153 63.85H173.653L168.453 50.825L169.978 46ZM164.603 62.175C164.47 62.5083 164.445 62.7917 164.528 63.025C164.611 63.2583 164.753 63.4417 164.953 63.575C165.153 63.6917 165.353 63.75 165.553 63.75H165.778V64H160.428V63.75C160.428 63.75 160.47 63.75 160.553 63.75C160.62 63.75 160.653 63.75 160.653 63.75C161.036 63.75 161.428 63.6333 161.828 63.4C162.245 63.15 162.586 62.7417 162.853 62.175H164.603ZM169.978 46L170.078 49.05L163.878 63.925H162.053L168.528 49.275C168.578 49.175 168.661 48.9917 168.778 48.725C168.911 48.4417 169.045 48.125 169.178 47.775C169.328 47.425 169.461 47.0917 169.578 46.775C169.695 46.4417 169.753 46.1833 169.753 46H169.978ZM172.603 58.05V59.1H165.253V58.05H172.603ZM172.978 62.175H177.353C177.636 62.7417 177.978 63.15 178.378 63.4C178.778 63.6333 179.17 63.75 179.553 63.75C179.553 63.75 179.586 63.75 179.653 63.75C179.72 63.75 179.753 63.75 179.753 63.75V64H171.803V63.75H172.028C172.361 63.75 172.653 63.6167 172.903 63.35C173.153 63.0667 173.178 62.675 172.978 62.175Z" fill="#1D2826"/>
<path d="M181.748 46.125L197.698 61.325L197.998 64.35L182.048 49.175L181.748 46.125ZM181.873 62.225V64H179.798V63.75C179.798 63.75 179.873 63.75 180.023 63.75C180.173 63.75 180.256 63.75 180.273 63.75C180.69 63.75 181.048 63.6 181.348 63.3C181.648 63 181.798 62.6417 181.798 62.225H181.873ZM185.373 62.225C185.373 62.6417 185.523 63 185.823 63.3C186.123 63.6 186.481 63.75 186.898 63.75C186.915 63.75 186.998 63.75 187.148 63.75C187.298 63.75 187.373 63.75 187.373 63.75V64H185.298V62.225H185.373ZM181.748 46.125L185.348 49.95L185.373 64H181.798V49.25C181.798 48.3167 181.748 47.5667 181.648 47C181.548 46.4167 181.498 46.125 181.498 46.125H181.748ZM197.923 46.5V61.15C197.923 61.7667 197.948 62.325 197.998 62.825C198.048 63.3083 198.098 63.6833 198.148 63.95C198.198 64.2167 198.223 64.35 198.223 64.35H197.998L194.373 60.3V46.5H197.923ZM199.923 46.5V46.75C199.923 46.75 199.848 46.75 199.698 46.75C199.548 46.75 199.473 46.75 199.473 46.75C199.056 46.75 198.698 46.9 198.398 47.2C198.098 47.4833 197.94 47.8417 197.923 48.275H197.848V46.5H199.923ZM192.348 46.5H194.423V48.275H194.373C194.356 47.8417 194.198 47.4833 193.898 47.2C193.615 46.9 193.256 46.75 192.823 46.75C192.823 46.75 192.748 46.75 192.598 46.75C192.448 46.75 192.365 46.75 192.348 46.75V46.5Z" fill="#1D2826"/>
<path d="M219.139 57V61.125C218.739 61.625 218.139 62.125 217.339 62.625C216.555 63.125 215.614 63.5417 214.514 63.875C213.414 64.1917 212.189 64.35 210.839 64.35C208.939 64.35 207.28 63.9833 205.864 63.25C204.447 62.5 203.347 61.4417 202.564 60.075C201.78 58.7083 201.389 57.0917 201.389 55.225C201.389 53.3583 201.772 51.75 202.539 50.4C203.322 49.05 204.43 48.0083 205.864 47.275C207.314 46.525 209.022 46.15 210.989 46.15C211.905 46.15 212.797 46.2167 213.664 46.35C214.53 46.4667 215.33 46.625 216.064 46.825C216.797 47.025 217.405 47.2583 217.889 47.525L217.939 51.8H217.714C217.397 50.6667 216.939 49.7667 216.339 49.1C215.739 48.4167 215.039 47.9333 214.239 47.65C213.455 47.35 212.622 47.2 211.739 47.2C210.389 47.2 209.239 47.5333 208.289 48.2C207.355 48.85 206.647 49.7833 206.164 51C205.697 52.2167 205.464 53.675 205.464 55.375C205.464 56.975 205.68 58.375 206.114 59.575C206.564 60.7583 207.214 61.675 208.064 62.325C208.914 62.9583 209.947 63.2833 211.164 63.3C211.78 63.3 212.372 63.2083 212.939 63.025C213.522 62.825 214.03 62.5417 214.464 62.175C214.897 61.8083 215.205 61.3583 215.389 60.825L215.414 57C215.414 56.25 214.989 55.875 214.139 55.875H213.739V55.625H220.764V55.875H220.389C219.522 55.875 219.105 56.25 219.139 57Z" fill="#1D2826"/>
<path d="M223.227 46.125L239.177 61.325L239.477 64.35L223.527 49.175L223.227 46.125ZM223.352 62.225V64H221.277V63.75C221.277 63.75 221.352 63.75 221.502 63.75C221.652 63.75 221.736 63.75 221.752 63.75C222.169 63.75 222.527 63.6 222.827 63.3C223.127 63 223.277 62.6417 223.277 62.225H223.352ZM226.852 62.225C226.852 62.6417 227.002 63 227.302 63.3C227.602 63.6 227.961 63.75 228.377 63.75C228.394 63.75 228.477 63.75 228.627 63.75C228.777 63.75 228.852 63.75 228.852 63.75V64H226.777V62.225H226.852ZM223.227 46.125L226.827 49.95L226.852 64H223.277V49.25C223.277 48.3167 223.227 47.5667 223.127 47C223.027 46.4167 222.977 46.125 222.977 46.125H223.227ZM239.402 46.5V61.15C239.402 61.7667 239.427 62.325 239.477 62.825C239.527 63.3083 239.577 63.6833 239.627 63.95C239.677 64.2167 239.702 64.35 239.702 64.35H239.477L235.852 60.3V46.5H239.402ZM241.402 46.5V46.75C241.402 46.75 241.327 46.75 241.177 46.75C241.027 46.75 240.952 46.75 240.952 46.75C240.536 46.75 240.177 46.9 239.877 47.2C239.577 47.4833 239.419 47.8417 239.402 48.275H239.327V46.5H241.402ZM233.827 46.5H235.902V48.275H235.852C235.836 47.8417 235.677 47.4833 235.377 47.2C235.094 46.9 234.736 46.75 234.302 46.75C234.302 46.75 234.227 46.75 234.077 46.75C233.927 46.75 233.844 46.75 233.827 46.75V46.5Z" fill="#1D2826"/>
<path d="M247.483 46.525L252.608 55.825L249.058 56.175L243.208 46.525H247.483ZM252.733 55.95V64H248.983V55.95H252.733ZM256.758 46.525H258.708L252.483 56.45L251.208 56.2L256.758 46.525ZM255.733 48.3C255.883 48.0667 255.925 47.8333 255.858 47.6C255.792 47.35 255.667 47.15 255.483 47C255.3 46.8333 255.092 46.75 254.858 46.75C254.858 46.75 254.808 46.75 254.708 46.75C254.608 46.75 254.558 46.75 254.558 46.75V46.5H260.533V46.75H260.183C259.667 46.75 259.175 46.9 258.708 47.2C258.258 47.5 257.908 47.8417 257.658 48.225L255.733 48.3ZM248.458 48.3L244.233 48.225C244 47.8417 243.658 47.5 243.208 47.2C242.758 46.9 242.267 46.75 241.733 46.75H241.383V46.5H249.658V46.75C249.658 46.75 249.6 46.75 249.483 46.75C249.383 46.75 249.333 46.75 249.333 46.75C248.967 46.75 248.683 46.925 248.483 47.275C248.3 47.6083 248.292 47.95 248.458 48.3ZM249.058 62.175V64H247.058V63.75C247.058 63.75 247.108 63.75 247.208 63.75C247.308 63.75 247.367 63.75 247.383 63.75C247.817 63.75 248.183 63.6 248.483 63.3C248.8 62.9833 248.967 62.6083 248.983 62.175H249.058ZM252.658 62.175H252.733C252.733 62.6083 252.892 62.9833 253.208 63.3C253.525 63.6 253.9 63.75 254.333 63.75C254.333 63.75 254.383 63.75 254.483 63.75C254.583 63.75 254.633 63.75 254.633 63.75V64H252.658V62.175Z" fill="#1D2826"/>
<path d="M269.81 46.15C271.81 46.15 273.543 46.525 275.01 47.275C276.493 48.0083 277.635 49.05 278.435 50.4C279.251 51.75 279.66 53.3667 279.66 55.25C279.66 57.1167 279.251 58.7333 278.435 60.1C277.635 61.45 276.493 62.5 275.01 63.25C273.543 63.9833 271.81 64.35 269.81 64.35C267.81 64.35 266.068 63.9833 264.585 63.25C263.118 62.5 261.985 61.45 261.185 60.1C260.385 58.75 259.985 57.1333 259.985 55.25C259.985 53.3833 260.385 51.775 261.185 50.425C261.985 49.0583 263.118 48.0083 264.585 47.275C266.068 46.525 267.81 46.15 269.81 46.15ZM269.81 63.3C270.993 63.3 272.01 62.975 272.86 62.325C273.71 61.6583 274.368 60.725 274.835 59.525C275.301 58.325 275.535 56.9 275.535 55.25C275.535 53.6 275.301 52.175 274.835 50.975C274.368 49.775 273.71 48.85 272.86 48.2C272.01 47.5333 270.993 47.2 269.81 47.2C268.643 47.2 267.626 47.5333 266.76 48.2C265.91 48.85 265.251 49.775 264.785 50.975C264.318 52.175 264.085 53.6 264.085 55.25C264.085 56.9 264.318 58.325 264.785 59.525C265.251 60.725 265.91 61.6583 266.76 62.325C267.626 62.975 268.643 63.3 269.81 63.3Z" fill="#1D2826"/>
<path d="M282.944 46.125L298.894 61.325L299.194 64.35L283.244 49.175L282.944 46.125ZM283.069 62.225V64H280.994V63.75C280.994 63.75 281.069 63.75 281.219 63.75C281.369 63.75 281.452 63.75 281.469 63.75C281.886 63.75 282.244 63.6 282.544 63.3C282.844 63 282.994 62.6417 282.994 62.225H283.069ZM286.569 62.225C286.569 62.6417 286.719 63 287.019 63.3C287.319 63.6 287.677 63.75 288.094 63.75C288.111 63.75 288.194 63.75 288.344 63.75C288.494 63.75 288.569 63.75 288.569 63.75V64H286.494V62.225H286.569ZM282.944 46.125L286.544 49.95L286.569 64H282.994V49.25C282.994 48.3167 282.944 47.5667 282.844 47C282.744 46.4167 282.694 46.125 282.694 46.125H282.944ZM299.119 46.5V61.15C299.119 61.7667 299.144 62.325 299.194 62.825C299.244 63.3083 299.294 63.6833 299.344 63.95C299.394 64.2167 299.419 64.35 299.419 64.35H299.194L295.569 60.3V46.5H299.119ZM301.119 46.5V46.75C301.119 46.75 301.044 46.75 300.894 46.75C300.744 46.75 300.669 46.75 300.669 46.75C300.252 46.75 299.894 46.9 299.594 47.2C299.294 47.4833 299.136 47.8417 299.119 48.275H299.044V46.5H301.119ZM293.544 46.5H295.619V48.275H295.569C295.552 47.8417 295.394 47.4833 295.094 47.2C294.811 46.9 294.452 46.75 294.019 46.75C294.019 46.75 293.944 46.75 293.794 46.75C293.644 46.75 293.561 46.75 293.544 46.75V46.5Z" fill="#1D2826"/>
<path d="M103.537 52.2245C103.51 52.7052 103.969 52.5312 104.052 52.6058C103.93 51.7934 103.416 52.2466 103.537 52.2245Z" fill="#1C3631"/>
<path d="M101.84 44.485L102.05 44.5928L101.393 43.5401L101.84 44.485Z" fill="#1C3631"/>
<path d="M100.187 37.4033C99.9137 37.8509 100.115 38.4671 100.408 39.1468C100.715 39.821 101.044 40.5753 101.053 41.2385L100.925 41.4844L101.677 41.9182C101.564 41.5369 101.423 41.1307 101.276 40.7218C101.127 40.3128 100.986 39.8956 100.818 39.5005C100.497 38.7075 100.24 37.9642 100.185 37.4005L100.187 37.4033Z" fill="#1C3631"/>
<path d="M100.458 33.1149C100.265 33.4603 99.8944 32.4076 100.713 34.0185C100.713 33.9218 100.718 33.8914 100.724 33.8333C100.66 33.6841 100.58 33.4769 100.461 33.1149H100.458Z" fill="#1C3631"/>
<path d="M100.724 33.8361C100.773 33.2614 101.036 34.5656 100.724 33.8361Z" fill="#1C3631"/>
<path d="M99.137 30.5425L99.817 31.3797C99.8944 31.109 99.5461 30.2386 99.8087 30.5011C99.2255 29.581 99.1591 29.8656 99.1398 30.5453L99.137 30.5425Z" fill="#1C3631"/>
<path d="M98.2 29.9015C98.3161 30.0424 98.4322 30.1833 98.5372 30.3325C98.5676 30.2137 98.5372 30.0728 98.2 29.9015Z" fill="#1C3631"/>
<path d="M99.2282 31.2637L98.5372 30.3325C98.4847 30.5232 98.258 30.6448 98.833 30.7691C98.5842 30.7829 98.8772 30.8907 99.2282 31.2637Z" fill="#1C3631"/>
<path d="M99.383 31.8992C99.4245 32.1976 99.4936 32.5264 99.4604 32.6811C99.4272 32.8359 99.325 32.7972 98.9933 32.3827C99.4217 33.2614 99.7147 33.5957 99.8225 33.4769C99.8722 33.4189 99.8723 33.2448 99.8087 32.9768C99.7423 32.7088 99.6207 32.3358 99.383 31.8992Z" fill="#1C3631"/>
<path d="M99.2918 37.2983C99.2973 37.558 99.3056 37.815 99.2973 38.0747L99.7258 38.619C99.618 38.4836 99.571 38.1217 99.524 37.8094C99.4715 37.4972 99.3996 37.2403 99.2918 37.2983Z" fill="#1C3631"/>
<path d="M96.3923 24.6378C96.2154 24.6737 96.2015 25.1711 96.0606 25.3479C96.2568 25.5275 96.4365 25.7154 96.6189 25.9033C96.5305 25.4971 96.2098 24.8146 96.3923 24.6378Z" fill="#1C3631"/>
<path d="M96.0606 25.3479L95.2009 24.5411C95.7206 25.4142 95.9362 25.4999 96.0606 25.3479Z" fill="#1C3631"/>
<path d="M97.3293 30.1253L97.6748 30.4679L98.001 30.8216L98.6588 31.54C98.1668 30.9514 97.6886 30.3657 97.1607 29.8131L97.3293 30.1253Z" fill="#1C3631"/>
<path d="M93.9129 20.9739C94.1478 21.0706 94.3773 21.1756 94.6094 21.2779L94.0317 20.9739L93.4375 20.6921L93.9129 20.9739Z" fill="#1C3631"/>
<path d="M92.0305 18.7248C92.5972 18.8878 92.0084 17.8682 92.4977 18.1307C91.9227 17.5587 91.2732 17.2133 90.6734 16.9287C91.2151 17.3156 91.6408 17.8792 92.0278 18.7248H92.0305Z" fill="#1C3631"/>
<path d="M89.7032 16.4314C89.9823 16.611 90.314 16.7603 90.6761 16.9288C90.3831 16.7271 90.068 16.553 89.7032 16.4314Z" fill="#1C3631"/>
<path d="M94.1865 22.886C94.2197 22.7561 94.3385 22.466 94.0538 21.8747L93.9322 22.5158C94.0096 22.629 94.0981 22.7561 94.1865 22.886Z" fill="#1C3631"/>
<path d="M93.9295 22.5379V22.5158C93.6613 22.1123 93.4734 21.8305 93.3932 21.7117C93.4623 21.8167 93.6226 22.0654 93.9295 22.5379Z" fill="#1C3631"/>
<path d="M94.2501 22.9772C94.228 22.944 94.2086 22.9164 94.1865 22.8832C94.1727 22.944 94.1755 22.9744 94.2501 22.9772Z" fill="#1C3631"/>
<path d="M96.3287 27.329C95.7676 26.8814 94.8471 25.8508 95.1567 27.1964C95.6708 27.4395 95.4884 26.6659 96.3287 27.329Z" fill="#1C3631"/>
<path d="M94.0843 23.7647C94.286 24.1101 94.4602 24.472 94.6481 24.8257C94.7393 24.7373 94.7753 24.4554 95.0627 24.6627C94.7338 24.3615 94.4215 24.0548 94.0843 23.7647Z" fill="#1C3631"/>
<path d="M93.6226 23.3723L94.0843 23.7647L93.8604 23.3806L93.6226 23.3723Z" fill="#1C3631"/>
<path d="M90.7867 18.2688C90.5379 18.139 90.3168 17.9704 90.1012 17.7743C89.8801 17.5836 89.6589 17.3764 89.4268 17.1526C89.6285 17.4372 89.8524 17.7079 90.0625 17.987C90.2726 18.2661 90.4909 18.5369 90.7148 18.7911C90.889 18.7662 91.287 18.8187 90.7867 18.2661V18.2688Z" fill="#1C3631"/>
<path d="M92.3373 20.3301C92.3069 20.308 92.2738 20.2749 92.2434 20.2555C92.2572 20.3356 92.2821 20.3909 92.3373 20.3301Z" fill="#1C3631"/>
<path d="M84.8163 12.7952C84.8273 12.8394 84.8301 12.8836 84.8384 12.9278C84.8632 12.9112 84.8826 12.8946 84.9075 12.8808L84.8163 12.7952Z" fill="#1C3631"/>
<path d="M90.7231 18.9375C90.9912 19.3879 91.2815 19.5454 91.5883 19.6753C91.2981 19.4128 91.0051 19.1226 90.7148 18.7911C90.6374 18.8021 90.5987 18.8242 90.7231 18.9348V18.9375Z" fill="#1C3631"/>
<path d="M88.2935 15.3069C88.4234 15.5638 88.5865 15.8374 88.7496 16.1303C88.6777 15.8291 88.451 15.2848 88.2935 15.3069Z" fill="#1C3631"/>
<path d="M92.2378 20.0372C92.26 20.0538 92.2821 20.0649 92.3014 20.0842C92.2738 19.8853 92.2489 19.935 92.2378 20.0372Z" fill="#1C3631"/>
<path d="M92.2378 20.0372C92.0195 19.8687 91.7983 19.7775 91.5883 19.678C91.8122 19.9019 92.0333 20.1008 92.2461 20.2583C92.2323 20.1865 92.2323 20.1036 92.2406 20.0372L92.2378 20.0372Z" fill="#1C3631"/>
<path d="M81.4579 13.9971C81.6265 13.8507 82.0245 13.8977 82.4613 14.116C82.6768 14.2265 82.9063 14.3729 83.1108 14.5691C83.3098 14.7708 83.4895 15.0084 83.6249 15.282C84.6698 15.7545 85.0927 14.2126 84.8384 12.9278C84.6863 13.0577 84.5868 13.1682 83.4923 12.646C83.5779 12.8698 84.0119 13.3699 84.2607 13.8093C84.5177 14.2403 84.6228 14.5691 84.1252 14.4006C83.4784 13.9806 83.2545 13.765 83.144 13.5578C83.0362 13.3506 83.0389 13.1572 82.815 12.8367C82.8952 13.2484 82.3866 13.0991 81.8393 12.961C81.2948 12.8118 80.6784 12.7206 80.5789 13.1351C80.9963 13.3036 81.3915 13.5081 81.7951 13.7043C81.7371 13.8175 81.2423 13.6822 81.4579 13.9971Z" fill="#1C3631"/>
<path d="M86.5189 14.453L86.9114 14.7514C86.5632 14.3038 86.378 13.9142 86.0407 13.1709C85.2779 12.7924 85.0457 12.8062 84.9075 12.8808C85.499 13.4279 86.1098 13.9557 86.6848 14.5193L86.5189 14.453Z" fill="#1C3631"/>
<path d="M88.4953 16.2822C87.901 16.3264 86.9059 15.6909 87.0634 16.542C87.326 16.7768 87.514 16.9233 87.6605 17.02C87.8098 17.1139 87.9203 17.1526 88.0254 17.1747C88.2354 17.2189 88.4096 17.194 88.7772 17.4317C87.1049 15.8512 89.4268 17.7273 88.4676 16.332C88.8408 16.6055 89.1421 16.8846 89.424 17.1526C89.178 16.81 88.9486 16.4674 88.7496 16.1303C88.7578 16.1524 88.7606 16.1689 88.7661 16.191L88.7744 16.1966C88.7744 16.1966 88.7689 16.1966 88.7661 16.1993C88.7938 16.3126 88.791 16.3624 88.7357 16.2574C88.7274 16.2574 88.7053 16.238 88.6943 16.2297C88.6362 16.2656 88.5644 16.2739 88.4925 16.2795C88.0972 15.7241 88.5063 16.1164 88.6943 16.2297C88.7164 16.2187 88.744 16.2159 88.7634 16.1993C88.7634 16.1966 88.7634 16.191 88.7634 16.1883C88.4676 15.9313 88.1553 15.6937 87.8429 15.4588L86.9087 14.7487C87.2155 15.1411 87.6854 15.539 88.4925 16.2795L88.4953 16.2822Z" fill="#1C3631"/>
<path d="M93.6641 26.6963C93.6641 26.6162 93.6945 26.5996 93.7194 26.5775C93.5922 26.4863 93.5287 26.4614 93.6641 26.6963Z" fill="#1C3631"/>
<path d="M93.4126 25.7734C93.5563 25.8729 93.7912 25.8867 94.0345 26.3592C94.1616 26.8206 93.8382 26.478 93.7194 26.5802C93.9986 26.7764 94.6011 27.3511 94.2694 26.3758L94.1285 26.2763C93.783 25.4335 93.6392 24.1128 93.7802 24.2095C93.5701 24.6737 93.443 25.0439 93.4126 25.7762V25.7734Z" fill="#1C3631"/>
<path d="M91.0963 20.9684C90.654 20.5125 90.1731 20.0952 89.7032 19.6697L90.0155 20.6589L90.173 20.4627C90.7811 21.3442 90.8585 20.985 91.0963 20.9656V20.9684Z" fill="#1C3631"/>
<path d="M84.7997 12.4691L85.3166 12.2509C84.8826 12.179 84.4265 12.1431 83.987 12.0934L84.7969 12.4691H84.7997Z" fill="#1C3631"/>
<path d="M82.7708 10.9494L83.108 10.6565C82.8786 10.5902 82.6381 10.535 82.406 10.4742L82.7708 10.9467V10.9494Z" fill="#1C3631"/>
<path d="M11.5789 76.3242L11.941 76.7027C11.7862 76.5148 11.6729 76.3988 11.5789 76.3242Z" fill="#1C3631"/>
<path d="M9.83751 73.0499L9.60256 73.0637C9.78776 73.1659 9.89832 73.188 9.83751 73.0499Z" fill="#1C3631"/>
<path d="M24.3186 8.44057C23.4037 8.54004 22.2566 8.52623 22.6131 8.8799L23.0941 9.13963C23.5364 8.7528 23.9454 8.55662 24.3186 8.44057Z" fill="#1C3631"/>
<path d="M3.51881 42.9488C3.57962 42.8852 3.64043 42.8189 3.70124 42.7526C3.58239 42.5316 3.47182 42.3243 3.37232 42.1392C3.41931 42.3851 3.45248 42.6587 3.51881 42.9488Z" fill="#1C3631"/>
<path d="M5.37074 43.8634L4.88979 44.7918C5.03629 44.5873 5.19384 44.2889 5.37074 43.8634Z" fill="#1C3631"/>
<path d="M25.6094 90.5844C25.861 90.5651 26.1125 90.5458 26.3695 90.5126C25.6094 90.0042 25.8084 90.4242 25.6094 90.5844Z" fill="#1C3631"/>
<path d="M59.03 1.32835C58.3445 1.05204 57.7834 0.902833 57.2859 0.814415C58.1207 1.19572 58.7481 1.69308 59.03 1.32835Z" fill="#1C3631"/>
<path d="M6.39347 77.515C6.64224 77.7748 6.80256 77.8549 6.88824 77.7941C6.63947 77.5261 6.45704 77.3934 6.39347 77.515Z" fill="#1C3631"/>
<path d="M55.2128 0.643131C55.3372 0.701156 55.4588 0.734313 55.5832 0.784048C56.1139 0.750891 56.6502 0.703891 57.2859 0.814415C56.6723 0.532579 55.9398 0.369585 55.2128 0.643131Z" fill="#1C3631"/>
<path d="M90.1786 78.5816C90.2256 78.5484 90.2698 78.5014 90.3168 78.4738C90.2726 78.4241 90.2283 78.4849 90.1786 78.5816Z" fill="#1C3631"/>
<path d="M102.49 59.4389C102.49 59.6738 102.443 60.0496 102.404 60.406C102.459 60.2374 102.493 59.9473 102.49 59.4389Z" fill="#1C3631"/>
<path d="M74.1607 5.50065C74.263 5.48683 74.661 5.70788 74.1607 5.50065Z" fill="#1C3631"/>
<path d="M75.5925 8.35488C75.4681 8.35212 75.3603 8.37422 75.2967 8.4654C75.3879 8.38251 75.4874 8.35212 75.5925 8.35488Z" fill="#1C3631"/>
<path d="M49.9638 3.53608C49.95 3.53608 49.9362 3.53608 49.9196 3.53608C50.0744 3.62726 50.0468 3.60792 49.9638 3.53608Z" fill="#1C3631"/>
<path d="M74.7881 6.05875C74.6361 5.91507 74.4509 5.7631 74.2381 5.61942C74.321 5.70231 74.4868 5.84047 74.7881 6.05875Z" fill="#1C3631"/>
<path d="M74.7937 5.8046C74.9512 5.90683 75.0756 5.9842 75.1917 6.06157C75.2884 6.02012 75.258 5.94828 74.7937 5.8046Z" fill="#1C3631"/>
<path d="M73.4641 5.21328C73.7488 5.33486 74.0004 5.47298 74.2381 5.61942C74.1551 5.54758 74.1275 5.50341 74.1607 5.50065C74.0142 5.44262 73.8069 5.35973 73.4669 5.21328H73.4641Z" fill="#1C3631"/>
<path d="M57.9216 99.9126C57.9548 99.9237 57.9935 99.9292 58.0322 99.943C58.4993 99.6833 58.2865 99.7413 57.9216 99.9126Z" fill="#1C3631"/>
<path d="M17.2287 20.6728C17.2398 20.6534 17.2398 20.6368 17.2508 20.6175C17.2315 20.6313 17.2066 20.6451 17.19 20.6589L17.2315 20.6755L17.2287 20.6728Z" fill="#1C3631"/>
<path d="M16.3414 22.2063C16.3774 21.2613 16.7008 20.9684 17.1872 20.6562C16.7173 20.4821 16.2391 20.308 15.7665 20.1478C15.9489 20.8441 16.1396 21.5293 16.3387 22.2035L16.3414 22.2063Z" fill="#1C3631"/>
<path d="M16.9162 83.3949L16.4546 82.2041C17.1981 82.5218 17.6874 82.9086 17.9583 83.0634C18.2374 83.2126 18.2817 83.1435 18.149 82.5218C17.8422 82.7401 17.4939 82.6379 17.1207 82.3754C16.7504 82.1101 16.344 81.6929 15.9819 81.2425C15.6088 80.7976 15.2356 80.3556 14.8735 80.071C14.528 79.7725 14.188 79.6344 13.8591 79.8167L13.6546 78.985C13.7734 79.1785 13.8674 79.1564 13.9863 79.3498C13.6822 77.6947 12.4328 79.0237 11.5069 77.2001C11.2332 76.5397 11.1947 75.9981 11.5789 76.3242L10.4786 75.1554C10.3764 74.9509 10.404 74.8404 10.4731 74.8321C10.5422 74.8266 10.6611 74.9205 10.7633 75.1223C10.3404 74.4508 9.96451 73.7518 9.55819 73.0665H9.60518C9.23479 72.8676 8.59905 72.3067 8.295 72.0221C8.23972 71.3755 8.56588 72.2376 8.67368 72.0165C8.38345 71.6601 8.07664 71.3092 7.79746 70.9417C7.87762 70.6129 8.10428 70.6737 8.35028 70.9168C8.60734 71.1572 8.88928 71.58 9.05236 72.0082C9.48356 71.1379 9.28731 70.9417 8.94456 70.5963C8.62669 70.2482 8.1485 69.7508 8.09046 68.3665C8.28394 68.734 8.50783 69.0877 8.71238 69.4469C8.96944 68.9219 8.91968 68.4798 8.85058 67.9686C8.77871 67.4574 8.64604 66.891 8.68197 66.1698C8.60181 66.3633 8.50231 67.1093 8.3254 67.6757C8.1485 68.2394 7.89697 68.6152 7.49341 67.999C7.47406 67.579 7.34692 67.0679 6.82174 66.4213C7.33033 66.2555 7.0014 65.5758 6.71394 64.6805L7.41325 64.559C7.17278 64.1058 6.98758 63.9152 6.79686 63.777C6.60614 63.6389 6.41265 63.5532 6.18876 63.299C6.0008 62.1744 6.48176 61.8401 6.8936 61.4919C6.7941 60.6077 6.63102 60.9476 6.432 61.2598C6.23299 61.5693 5.99804 61.8539 5.74374 60.8067C5.74374 60.4226 5.71334 60.0745 5.65806 59.7401C5.61659 59.403 5.55302 59.0798 5.46457 58.7482C5.29043 58.085 5.00297 57.397 4.74038 56.5046C4.90346 55.4242 5.1854 56.6565 5.35953 56.2586L4.72379 55.3606C4.71827 55.1285 4.89793 55.1949 4.98915 55.228C4.72932 54.4461 4.27601 55.2031 4.04659 53.9432C3.65962 53.7829 3.90562 53.117 4.18756 52.3185C4.33406 51.9178 4.47779 51.484 4.53031 51.053C4.58835 50.6219 4.5386 50.1881 4.35617 49.7875C4.58559 49.4172 4.77355 49.9975 5.05825 49.8953C4.84818 48.8259 4.77908 48.3562 4.67957 47.9362C4.58559 47.5135 4.48885 47.1432 4.20967 46.2121C4.42527 45.7313 4.63826 45.256 4.88979 44.7918C4.17113 45.7948 3.79782 44.3138 3.51589 42.9516C3.19249 43.2998 2.91055 43.6037 2.76405 43.8137L2.75852 42.761C2.753 42.4073 2.7834 42.0619 2.79446 41.711C2.96307 41.4927 3.15379 41.7497 3.36662 42.1393C3.34175 41.99 3.31411 41.8491 3.28647 41.7358C3.70661 41.0782 4.01619 41.548 4.28707 42.1337C4.09634 42.3437 3.89457 42.551 3.69555 42.7527C4.02724 43.3329 4.41421 43.8717 4.83988 43.8468C4.78184 43.7059 4.75696 43.449 4.76525 43.1727C4.85647 43.3219 4.94492 43.4213 5.02508 43.3771C5.11353 43.3274 4.98362 43.0925 4.88411 42.7388L5.7548 42.4681L5.47286 42.2968L6.0008 41.1059C6.16941 40.7107 6.38501 40.3267 6.57573 39.9426C6.5094 39.4535 6.41542 38.9645 6.32697 38.4588C6.25786 37.9615 6.18876 37.4448 6.1473 36.8977C6.12519 36.6241 6.11137 36.3395 6.1086 36.0466C6.1086 35.7538 6.13348 35.4581 6.16388 35.1431C6.19705 34.8309 6.24404 34.5076 6.30762 34.1677C6.37119 33.8306 6.44859 33.4742 6.57297 33.1178C6.79686 34.0268 7.37456 33.6345 7.98818 33.9439C7.49065 34.165 7.3635 34.7342 7.25846 35.4001C7.21147 35.7344 7.15896 36.0881 7.09815 36.4528C7.04287 36.8175 6.95718 37.185 6.80239 37.5304C7.12855 36.8065 7.38008 37.0828 7.42431 37.3066C7.48236 36.3865 7.63438 35.4885 7.75324 34.5629C8.00201 34.6983 8.15127 34.6043 8.295 34.4081C8.4415 34.212 8.60734 33.9218 8.85334 33.651C8.23695 33.6676 8.27565 33.1371 8.48849 32.4519C8.541 32.2806 8.60458 32.0982 8.67368 31.9158C8.75107 31.7362 8.82847 31.5539 8.9031 31.3743C9.05236 31.0151 9.18504 30.6697 9.23479 30.3851C9.59412 30.4984 9.81248 30.9073 9.12423 32.054C9.8346 31.5843 9.7572 31.0233 9.67152 30.4376C9.57754 29.8518 9.51396 29.266 10.1856 28.8046C10.0281 29.0947 9.88988 29.2218 9.98939 29.4263C10.0364 29.0118 10.3542 28.426 10.6638 28.0143C10.9789 27.6054 11.3079 27.3899 11.3244 27.6579L11.1531 27.937C11.4737 27.4976 11.8579 26.9312 12.2449 26.315C12.6429 25.7072 13.0741 25.0717 13.4307 24.4472C13.7955 23.831 14.1383 23.2674 14.3318 22.7811C14.528 22.2975 14.5999 21.9134 14.4783 21.7034C14.5833 21.7642 15.161 22.6457 15.2329 22.8695C15.2439 21.2227 15.313 19.5123 15.5148 17.8047C15.6806 18.2137 16.3496 18.5038 16.8499 18.9044C17.3502 19.3051 17.6901 19.8135 17.2396 20.612C17.458 20.4656 17.7012 20.3026 17.9583 20.0511C18.2153 19.8024 18.4724 19.4571 18.7737 18.9901C18.4392 19.1448 17.3142 18.7773 17.6127 18.3822C18.4171 18.2385 18.6631 18.1667 18.9312 18.0562C19.0639 18.0009 19.2021 17.9401 19.4122 17.8489C19.6222 17.7633 19.9014 17.65 20.3381 17.5339C19.824 17.7495 19.4177 16.4259 20.0977 15.8927C20.1225 16.122 20.9656 16.7962 20.8219 17.0946L21.2061 15.9396C21.3387 15.5528 21.4908 15.1853 21.6373 14.8013C21.3609 15.3014 22.226 15.6772 22.8037 15.6716C22.6434 15.6412 23 15.3704 23.4367 15.0527C23.8817 14.746 24.429 14.4144 24.6142 14.2017L23.7297 14.4752C24.7413 13.8811 24.9459 13.1655 25.2002 12.483C25.3218 12.1376 25.4462 11.784 25.6673 11.4413C25.8912 11.1015 26.2063 10.7506 26.7398 10.4743C26.6126 10.8445 26.9443 12.1791 28.0472 11.7259C28.0859 11.5215 28.1384 11.1761 28.2296 10.7506C28.3208 10.325 28.4425 9.80835 28.6332 9.29994C28.8211 8.78324 29.0644 8.24444 29.374 7.74156C29.678 7.23039 30.065 6.79106 30.5183 6.45396L31.0545 6.61146C31.5106 6.25502 31.9639 5.88753 32.4421 5.56148C32.1242 6.18318 31.5161 7.29394 30.8804 8.36878C30.557 8.89653 30.2529 9.47678 29.9572 9.97414C29.6642 10.4798 29.385 10.9219 29.1473 11.2728C30.0567 11.1236 29.5647 11.538 30.7035 10.9163C31.2618 11.0131 30.3137 11.6983 29.9876 11.8862L31.3641 11.3059L31.7069 11.1595L32.0579 11.0324L32.7572 10.7782C32.5416 10.466 32.9866 10.0626 33.4482 9.66467C33.9181 9.29165 34.4074 8.93521 34.2388 8.66719C33.2934 9.28889 32.4117 10.0101 31.5272 10.6787C31.3061 10.372 31.5078 9.70335 32.0441 9.00153C32.315 8.65614 32.6577 8.28036 33.0834 7.98471C33.5063 7.6863 33.9955 7.42933 34.5262 7.25526C35.1509 7.3271 34.6036 8.64509 34.7418 8.85785C34.8275 8.69483 35.2532 8.37154 35.7093 8.1505C36.1626 7.92669 36.6269 7.75537 36.7513 7.81064L36.0161 8.4793C36.6269 8.42128 37.0056 8.03168 37.4423 7.68077C37.8763 7.33538 38.3821 7.0646 39.1699 7.20276C39.4187 7.16131 39.8333 7.27736 40.1871 7.38236C40.5409 7.48459 40.8256 7.53985 40.8145 7.31604C39.8416 6.66948 38.993 4.17441 39.4104 3.42561C39.5099 3.43114 40.2451 3.46982 41.0274 3.54443C41.2236 3.56377 41.4226 3.58035 41.6161 3.60798C41.8124 3.63837 42.0003 3.67429 42.1745 3.70745C42.5227 3.77653 42.8157 3.85389 42.9788 3.93126C43.4598 4.1827 43.2055 4.63032 42.9484 5.06689C42.6886 5.50346 42.426 5.92897 42.8268 6.14726C42.8185 5.94279 43.2248 5.61674 43.399 5.50346C43.949 5.58082 43.2912 6.16107 44.3996 5.87095C44.4769 5.09728 46.7269 5.63885 44.8446 5.17189C45.3919 4.99505 45.6959 4.99505 46.0276 5.01439C46.3593 5.03649 46.7131 5.06136 47.3737 5.0061C47.1415 4.77953 47.3986 4.34572 47.8713 3.9285C48.3439 3.51956 49.0294 3.09404 49.6154 2.98628C49.5546 3.1797 49.8282 3.42285 49.9554 3.53337C50.5497 3.53337 51.0776 3.55548 51.5641 3.58587C52.0533 3.63285 52.5011 3.69916 52.9461 3.75442C53.3884 3.80968 53.8251 3.86494 54.2895 3.92297C54.7511 3.99205 55.2403 4.05283 55.7876 4.09428C55.9783 4.2877 57.0038 4.59716 56.5256 4.879C56.849 4.78229 57.1614 4.56677 57.833 4.63308C59.0354 5.44267 56.3404 4.54466 57.2249 5.44819C57.3548 5.03373 59.0133 5.03649 60.0001 4.96742C59.9559 4.78782 59.7983 4.66624 59.5716 4.58335C59.3422 4.50322 59.0465 4.45625 58.7203 4.4673C58.0707 4.47282 57.33 4.58335 56.8407 4.66071C56.8877 4.19652 57.3521 3.77376 58.1233 3.45324C58.5075 3.29851 58.9691 3.1493 59.4832 3.06641C59.9973 2.98905 60.5667 2.94484 61.1748 2.94484C62.134 2.98905 62.297 3.21286 62.2749 3.36759C62.2501 3.52785 62.0345 3.66048 62.2058 3.63008C63.0572 3.86771 63.6874 3.93126 64.2043 3.91192C64.7156 3.91468 65.1109 3.83455 65.4868 3.76271C65.8627 3.69087 66.2221 3.63008 66.6533 3.67982C67.0844 3.72955 67.5792 3.92573 68.2343 4.32085C69.1547 5.26031 67.8943 5.45372 68.0021 5.94279C67.2503 5.81016 66.7362 5.52832 66.2746 5.25754C65.8102 5.00057 65.4066 4.73532 64.9063 4.60545L66.0452 5.22162C65.5227 5.27965 64.5194 5.14978 64.0357 4.83479C64.2319 5.02821 64.6825 5.23267 65.2795 5.44543C65.578 5.55319 65.9152 5.66095 66.2773 5.777C66.6339 5.9041 67.0153 6.0395 67.4106 6.18041C67.8031 6.32133 68.215 6.45672 68.6185 6.61422C69.0193 6.78 69.4173 6.95132 69.8043 7.12263C70.1885 7.29946 70.57 7.45972 70.9072 7.65867C71.2472 7.85208 71.5623 8.0455 71.8387 8.23891C72.35 8.24997 73.1876 8.40194 72.936 8.02892L72.1262 7.75537C71.6065 6.99552 73.8731 7.81893 72.9803 7.1696C73.5856 7.2442 74.2186 7.35473 74.893 7.53156C75.2275 7.62551 75.5702 7.74156 75.9102 7.89906C76.2419 8.07037 76.5736 8.28036 76.8997 8.54562L76.8279 9.28613C76.8997 9.09824 76.1009 8.40194 75.6006 8.35773C75.971 8.39365 76.4022 8.90758 76.8721 9.35797C77.107 9.58454 77.353 9.78901 77.6046 9.92164C77.8533 10.0626 78.1132 10.1206 78.3868 10.0349C78.1463 9.69783 77.9114 9.34968 77.6543 9.02916C77.9556 9.09824 78.2735 9.17284 78.6079 9.25573C78.9424 9.33586 79.2907 9.42428 79.6389 9.52928C79.9845 9.6398 80.341 9.75861 80.6644 9.93545C80.9878 10.1123 81.2919 10.3223 81.5655 10.582C81.3969 9.64256 81.2504 10.4466 80.8192 9.18942C80.9353 9.84151 80.1365 9.31652 79.3957 8.83574C79.0226 8.59535 78.6688 8.36325 78.4449 8.30523C78.2182 8.24997 78.1408 8.34944 78.3205 8.75561C78.0911 8.09247 77.729 7.77748 77.3226 7.45143C76.9163 7.12539 76.4713 6.78553 76.0069 6.12515C75.9434 6.34344 76.2585 6.73579 75.1888 6.0616C75.1086 6.09476 74.9511 6.10581 74.8543 6.11134C74.8239 6.08923 74.8128 6.07818 74.7852 6.05884C74.8046 6.07818 74.8156 6.09476 74.835 6.1141C74.7714 6.11963 74.7631 6.12239 74.8543 6.13344C75.0782 6.35725 75.2385 6.57277 75.2689 6.72751C74.8737 6.81869 74.249 6.62251 73.6188 6.42909C72.9858 6.24396 72.3611 6.03121 72.0073 6.01739C71.3826 5.61951 72.3887 5.90963 72.1206 5.52556L71.5899 5.50346H71.0537C71.1587 5.01163 69.5307 4.01691 71.2693 4.38993L69.8043 3.78758C69.4201 3.48364 68.9198 3.22943 68.4223 3.01668C67.922 2.81221 67.4217 2.65747 67.0098 2.64919C66.316 2.33972 65.0418 2.66024 65.7715 2.46406C65.3597 2.40327 64.9478 2.33143 64.536 2.27893L63.2949 2.14907L63.3004 2.02196C62.1201 1.69039 60.8348 1.70421 59.5495 1.57158C58.2476 1.51079 56.943 1.30909 55.5803 0.7841C55.1657 0.817257 54.7455 0.850414 54.2563 0.855941C53.7698 0.878045 53.2142 0.866993 52.5315 0.781337L52.2689 0.344769C51.7382 0.391742 50.9422 0.317138 50.2152 0.261876C49.491 0.212141 48.8387 0.187273 48.6231 0.441477C48.3218 0.173458 47.8408 0.0491186 47.2659 0.0131984C46.9785 -0.00614319 46.6633 -0.0033801 46.3372 0.0159615C46.011 0.0408293 45.671 0.0960911 45.3255 0.151353C44.6373 0.272929 43.9269 0.400031 43.2829 0.552001C42.6361 0.703971 42.0445 0.82831 41.5691 0.861467L41.6051 1.42514C41.4475 1.45 41.29 1.47764 41.1324 1.50803C40.9776 1.54671 40.8228 1.5854 40.668 1.62961C40.3585 1.71526 40.0461 1.81197 39.731 1.91697C39.4131 2.02196 39.0897 2.13801 38.7497 2.26512C38.4153 2.39774 38.0698 2.558 37.7022 2.71826L37.9288 3.16865C37.3345 3.55548 36.4721 3.67982 35.5185 3.88152C35.0403 3.97271 34.5318 4.06389 34.0149 4.17717C33.5063 4.30704 32.9922 4.47282 32.4974 4.68006C32.5637 4.45072 33.0917 4.29599 33.4925 4.26007C32.7959 4.23244 32.1408 4.39546 31.5217 4.65243C30.9108 4.92597 30.3414 5.31557 29.7858 5.69687C29.2247 6.06713 28.7078 6.50093 28.166 6.82974C27.6243 7.16407 27.0632 7.40446 26.4634 7.52604C26.0488 7.97366 25.6563 8.12839 25.2389 8.22234C25.2859 8.19471 25.3218 8.16155 25.3494 8.12839C25.2942 8.15326 25.2168 8.19747 25.1394 8.24168C24.8713 8.29418 24.5948 8.34944 24.3129 8.43786C24.5838 8.41023 24.8298 8.36325 25.0316 8.30523C24.6501 8.53733 24.1139 8.97113 23.6219 9.42981L23.0912 9.13692C23.0497 9.17284 23.011 9.19494 22.9696 9.23363C22.3062 9.42704 22.6683 9.72822 23.1824 9.8719C22.9474 10.1206 22.765 10.3914 22.6434 10.6318C22.1846 10.43 21.8695 10.7423 21.535 11.0628C21.3664 11.2231 21.195 11.3833 20.9932 11.4855C20.7942 11.5933 20.5703 11.643 20.2884 11.574C20.2469 11.889 19.6444 12.472 19.0915 13.0909C18.5636 13.7375 18.0937 14.4199 18.2761 14.8841C18.1794 14.8068 17.9942 14.8897 18.254 14.652C17.6238 15.0361 17.0295 15.4727 16.7393 16.1137L16.0455 15.8402L15.7857 16.7161L15.5618 17.6086C14.6054 18.0147 14.1411 18.1529 14.434 17.0919C14.1742 17.6555 13.9752 18.0313 13.8177 18.3187C13.6684 18.6116 13.5468 18.8077 13.4362 18.9929C13.2151 19.3659 13.0078 19.703 12.6844 20.706L12.4052 20.3523C11.9768 20.9215 11.7501 22.1621 11.2001 22.2754C10.7965 22.4633 10.3155 22.9634 9.7572 23.6376C9.619 23.8089 9.4725 23.9858 9.33153 24.1792C9.19609 24.3781 9.05512 24.5826 8.90863 24.7953C8.62393 25.2264 8.32264 25.6851 8.00753 26.1575C6.8245 28.1028 5.61383 30.3768 4.45844 32.1092C5.2158 32.007 4.87858 32.3773 4.48055 32.8525C4.09634 33.3333 3.62921 33.9246 4.06594 34.1788C3.69555 34.2893 3.3224 34.7646 3.31963 34.0489C3.25882 34.3087 3.18696 34.5435 3.10956 34.7646C3.0377 34.9856 2.9686 35.1956 2.8912 35.389C2.73918 35.7786 2.57886 36.1213 2.43789 36.4501C2.14766 37.1021 1.99564 37.7211 2.20294 38.5334C1.84361 38.6826 1.89613 37.978 1.66394 38.1328C1.68053 38.3151 1.73581 38.8512 1.50086 39.0142C1.26592 39.1745 1.33778 38.6495 1.30185 38.2875C1.16641 38.8153 1.11665 39.238 1.13324 39.5834C1.16364 39.9315 1.25762 40.194 1.3903 40.404C1.65565 40.8213 2.07856 41.0119 2.49041 41.186C2.16701 41.6585 1.98734 42.0315 1.94312 42.3935C1.91271 42.7582 2.01222 43.1119 2.22782 43.5401C1.87954 43.8496 1.47046 44.416 1.60037 43.1008C1.55615 43.2804 1.46217 43.6451 1.34884 44.0928C1.29632 44.3166 1.23827 44.5625 1.17746 44.8167C1.13048 45.0737 1.08901 45.3362 1.05308 45.5986C0.909348 46.6403 0.862358 47.6102 1.22722 47.682C1.03097 47.8948 1.09731 48.7071 1.16364 48.9033C1.11942 49.315 1.08349 49.6328 1.05584 49.9008C1.0282 50.1716 1.01991 50.3954 1.00609 50.6164C0.981214 51.0613 0.970158 51.5034 0.983978 52.3157L1.11113 51.8681C1.93206 52.5119 1.29908 53.2054 1.43453 54.5068L1.34607 54.4737C1.19958 55.2252 1.19129 55.6839 1.19958 55.9906C1.21063 56.2973 1.25762 56.4548 1.29908 56.6123C1.34331 56.7671 1.38201 56.9218 1.38201 57.2257C1.38201 57.3777 1.37095 57.5656 1.34884 57.8115C1.33502 58.0574 1.31014 58.3586 1.27144 58.7344L1.77727 58.5133C2.3605 58.5824 2.27481 59.2373 2.12555 60.0938C2.00393 60.9448 1.8519 62.0086 2.21953 62.8099C2.27757 62.5889 2.34391 62.3651 2.40472 62.144C2.66455 62.5668 2.43789 63.2686 2.14213 64.0146C1.8519 64.7551 1.48151 65.5426 1.55615 66.0234C1.52021 66.25 1.30461 65.7471 1.16641 65.4763C1.19681 68.0985 1.92377 65.6172 2.58715 67.3663C2.33009 67.8056 1.5368 67.2115 1.84914 68.4494C1.80768 68.7975 2.3909 69.585 2.97412 70.4941C3.28647 70.9417 3.59604 71.4225 3.82823 71.906C3.94432 72.1492 4.0383 72.3923 4.10464 72.6327C4.17927 72.8703 4.22626 73.108 4.23179 73.3401C4.33958 72.8759 4.45291 72.4282 5.00573 73.1245C5.16605 73.4147 5.27385 73.7904 5.37059 74.2021C5.41758 74.4094 5.46457 74.6249 5.51156 74.8432C5.56684 75.0587 5.62212 75.277 5.6857 75.4925C5.93999 76.3491 6.2551 77.1752 6.96547 77.4626C6.97929 77.6477 6.94612 77.7389 6.88808 77.7803C7.06498 77.971 7.27781 78.2335 7.50723 78.5209C7.73665 78.8082 7.97989 79.126 8.24801 79.4133C8.77319 79.9936 9.2956 80.5075 9.66322 80.6208C9.39787 81.074 9.56372 81.5796 9.90094 82.1156C10.2437 82.6461 10.7689 83.2015 11.3217 83.6878C11.869 84.1797 12.3776 84.6522 12.701 85.0445C13.0244 85.4341 13.1294 85.7795 12.806 86.0503C13.1598 86.4288 13.5025 86.8212 13.8674 87.1887L14.973 88.2829L14.7934 88.3436C14.9565 88.5343 15.1085 88.7028 15.2577 88.8548C15.407 89.0068 15.5563 89.1311 15.6945 89.2444C15.9736 89.471 16.2252 89.6368 16.4574 89.7639C16.9245 90.0153 17.3087 90.1148 17.704 90.1921C17.9721 90.5762 17.6155 90.4767 17.5271 90.5154C18.5083 91.5875 19.0639 92.1788 19.7052 92.5601C20.0203 92.7563 20.3492 92.9165 20.7445 93.0768C21.137 93.2426 21.6179 93.3863 22.2315 93.5631L22.1182 94.1544C22.2979 94.1848 22.5688 94.3948 22.9198 94.7126C23.2681 95.0303 23.7214 95.4171 24.23 95.8537C24.487 96.0692 24.7579 96.293 25.0454 96.5113C25.3411 96.7186 25.648 96.923 25.9686 97.1164C26.2892 97.3099 26.6182 97.4895 26.9554 97.6497C27.2898 97.8127 27.6492 97.9205 28.003 98.0172C27.9505 98.0587 27.8482 98.1277 27.6077 98.0918C29.1777 98.556 30.7422 99.7193 32.2348 100.54C32.6052 100.744 32.9673 100.932 33.3156 101.087C33.4897 101.164 33.6583 101.236 33.8269 101.294C33.9955 101.347 34.1614 101.388 34.3189 101.421C34.9574 101.546 35.513 101.479 35.9442 101.098L36.4804 101.151L37.0222 101.178L38.0974 101.228C36.8176 100.783 36.9835 100.606 37.3345 100.457C37.6883 100.311 38.2273 100.192 37.7519 99.8851C38.266 99.9707 38.8686 100.297 39.1948 100.576C39.5237 100.836 39.5652 101.068 38.9267 100.952L38.758 100.8C38.02 101.72 41.9146 101.944 41.7101 102.59C44.3443 103.096 46.9646 103.496 49.5739 103.762C50.229 103.814 50.8786 103.867 51.5281 103.919C52.1777 103.95 52.8273 103.958 53.4741 103.974C53.7975 103.977 54.1209 103.994 54.4415 103.983C54.7621 103.969 55.0828 103.958 55.4034 103.944C55.724 103.927 56.0419 103.911 56.3625 103.897C56.6804 103.88 56.9983 103.861 57.3134 103.82C57.0895 103.574 56.8711 103.336 56.6528 103.079C57.2332 103.041 57.8109 102.969 58.3914 102.916C58.8696 103.046 59.0935 103.463 57.8358 103.59C58.1924 103.775 58.7093 103.612 59.1294 103.383C59.5523 103.162 59.8702 102.825 59.8757 102.742C61.1057 102.69 60.9178 102.963 60.5031 103.237C60.0885 103.51 59.45 103.787 59.8259 103.729L60.8348 103.488L60.5888 103.436C60.973 103.201 61.1638 102.994 61.4457 102.817C61.5867 102.728 61.7498 102.651 61.9709 102.574C62.1892 102.491 62.4657 102.411 62.8333 102.336C63.7979 102.281 63.4248 102.712 63.7979 102.656C63.809 102.712 63.9417 102.709 64.3701 102.549C65.0971 102.383 65.8157 102.192 66.5427 102.013L65.5089 101.642C65.9374 101.358 66.4349 101.225 66.6809 101.109C66.9241 100.985 66.9158 100.902 66.3243 100.692C67.1895 101.007 69.1907 100.468 71.0288 99.711C71.4959 99.5397 71.9354 99.3186 72.3611 99.1252C72.784 98.929 73.182 98.7439 73.5386 98.5809C74.2462 98.241 74.7741 97.9758 75.0229 97.9537C75.2744 97.6939 75.537 97.4618 75.8134 97.2491C76.0843 97.0253 76.3635 96.8125 76.662 96.6163C77.2563 96.2157 77.9224 95.8703 78.6328 95.431C78.2127 95.5415 77.6322 95.0607 78.8678 94.3755C78.9617 94.7568 79.1663 94.8922 79.4482 94.8839C79.7302 94.8756 80.095 94.7319 80.4765 94.5164C80.8634 94.3091 81.2863 94.0577 81.712 93.8726C81.9248 93.7786 82.1404 93.7013 82.3505 93.6515C82.5551 93.5935 82.7596 93.5659 82.9559 93.5825C82.3284 93.6267 83.1162 92.9525 83.8155 92.3004C84.1721 91.9799 84.4789 91.6317 84.5922 91.4024C84.7055 91.1703 84.6143 91.0432 84.1444 91.1178C85.1257 90.427 84.5563 91.4936 85.4795 91.1565C85.7034 90.8636 85.9577 90.5956 86.212 90.311C86.4663 90.0291 86.7371 89.7556 87.0218 89.4876C87.3065 89.2168 87.6106 88.957 87.9146 88.6863C88.2132 88.4099 88.52 88.1336 88.8351 87.8546C89.1474 87.5727 89.4763 87.2992 89.7887 87.0008C90.0955 86.6996 90.4078 86.3957 90.7147 86.0807C91.3421 85.4645 91.9032 84.771 92.4173 84.036C92.2957 83.8757 91.6959 84.1576 91.9364 83.3839C92.5887 83.0993 93.1968 82.7705 93.8326 82.4444C93.9984 82.1267 93.863 81.8338 93.8491 81.5381C93.8409 81.3889 93.863 81.2425 93.968 81.0878C94.0675 80.9303 94.2444 80.7645 94.5595 80.5876C94.3246 80.6512 93.9735 80.7396 94.1753 80.3141C96.4723 77.6671 97.9621 74.3652 99.1617 71.0191C100.372 67.6536 101.309 64.2605 102.758 60.873C102.216 61.7655 102.293 61.1217 102.407 60.3978C102.235 60.8537 101.934 60.3149 101.658 60.3674C101.846 59.9032 102.025 59.4307 102.211 58.9582C102.387 58.4829 102.592 58.0104 102.744 57.5269C102.401 57.223 102.448 56.4327 102.498 55.6729C102.528 55.2916 102.534 54.9185 102.495 54.6201C102.457 54.3217 102.374 54.0979 102.202 54.015L102.304 54.9489C101.906 54.3134 101.445 54.7334 100.931 55.2556C100.403 55.7806 99.8362 56.4051 99.3137 56.2752C99.5238 56.6178 99.5238 57.0047 99.4271 57.4164C99.3193 57.8281 99.0926 58.2619 98.8881 58.7206C98.783 58.9499 98.6835 59.1848 98.5978 59.4251C98.5149 59.6683 98.4431 59.9142 98.385 60.1657C98.28 60.6741 98.291 61.2101 98.526 61.8014C98.2302 62.2242 98.2606 61.34 97.9759 61.5417C98.3436 62.1578 98.2689 62.821 97.8018 63.9511L97.7244 63.7908C97.6829 63.9981 97.6415 64.1998 97.6 64.3932C97.553 64.5866 97.4977 64.769 97.448 64.9458C97.3429 65.3022 97.2407 65.6366 97.1329 65.9543C96.9311 66.5954 96.674 67.1618 96.4087 67.7365C96.2732 68.0211 96.1378 68.3112 95.9968 68.6096C95.8586 68.9081 95.6817 69.2065 95.5159 69.527C95.1731 70.1653 94.8193 70.8809 94.3494 71.6988L94.9437 71.6573C94.5429 72.373 94.3246 72.4586 94.0509 72.7488C94.3826 73.9424 95.0322 70.6847 95.4827 71.8176C95.1262 71.9613 94.8 72.3564 94.4876 72.8759C94.1753 73.3953 93.827 74.0115 93.5036 74.6304C93.4207 74.7852 93.3378 74.9371 93.2576 75.0891C93.1719 75.2383 93.0807 75.3792 92.9923 75.5174C92.8154 75.7937 92.6357 76.0507 92.4588 76.2689C92.105 76.7055 91.7567 76.9956 91.3946 76.9846C90.7174 78.0263 92.1078 76.9956 91.4278 78.0428L90.9745 78.1451L91.1569 78.6424C90.9109 78.974 90.6317 79.1591 90.3885 79.2448C90.148 79.3332 89.9435 79.3249 89.8191 79.2558C89.9601 79.1149 90.0789 78.7557 90.1812 78.5733C89.7168 78.8911 89.3188 79.5073 88.9926 80.0792C88.6665 80.6484 88.3735 81.143 88.2187 81.248C88.5144 80.9772 88.8185 80.712 89.1115 80.4329C88.8876 80.7921 88.6361 81.1485 88.3762 81.5105C88.1109 81.867 87.8593 82.2455 87.5553 82.5881C86.9583 83.2817 86.3667 84.0111 85.7117 84.6798C85.391 85.0196 85.0759 85.3623 84.7636 85.7049C84.4374 86.0337 84.1195 86.3625 83.8127 86.6968C83.2129 87.3766 82.5965 88.0038 82.0824 88.6752L82.4334 88.7001C82.2289 88.9515 82.052 89.1587 81.8889 89.3301C81.7203 89.4931 81.5683 89.6257 81.4273 89.7335C81.1481 89.9518 80.916 90.0816 80.6727 90.2087C80.4267 90.3331 80.1835 90.4712 79.8518 90.6674C79.5201 90.8636 79.1193 91.1427 78.5831 91.5903L78.6328 91.4825C78.3288 92.0185 77.7566 92.5159 77.0987 92.9083C77.5327 92.2866 75.6918 93.1431 76.2944 92.375C76.1672 92.4938 76.0539 92.5988 75.9489 92.6983C75.8411 92.7922 75.7443 92.8751 75.6587 92.9497C75.4845 93.1017 75.3518 93.2233 75.2496 93.3255C75.0423 93.53 74.9511 93.6543 74.8902 93.7731C74.8294 93.8947 74.8018 94.0107 74.7189 94.2069C74.6332 94.4003 74.4977 94.6794 74.1909 95.0856L73.6243 94.917C73.4336 95.2237 73.3451 95.4282 73.1572 95.6465C72.9664 95.862 72.679 96.1134 72.0515 96.445C72.9526 95.652 70.9735 96.2461 71.9465 95.2983C71.1891 95.395 70.5948 95.6023 70.0945 95.8537C69.5887 96.0913 69.1686 96.3538 68.7899 96.5997C68.4084 96.8374 68.0768 97.0695 67.7174 97.1524C67.3609 97.2408 66.996 97.2242 66.5786 97.0197C66.1281 97.7713 66.7693 97.7188 67.4576 97.5364C68.1486 97.3679 68.8452 96.9921 68.5384 97.2518C68.8977 97.3099 68.7153 97.6083 68.3228 97.926C67.9247 98.2272 67.3083 98.5256 66.8495 98.6223C66.3934 98.766 65.9014 98.5533 65.2436 98.3598C64.9146 98.2687 64.5498 98.1885 64.1269 98.1719C63.914 98.1637 63.6901 98.1719 63.4469 98.2023C63.2009 98.2217 62.9383 98.2604 62.6564 98.3294C62.883 98.2825 62.8775 98.1968 63.1042 98.1498C62.6453 98.1056 62.2556 98.2963 61.8327 98.4731C61.6226 98.5615 61.4015 98.6444 61.1638 98.6914C60.9233 98.7273 60.6662 98.7273 60.3815 98.6582C59.9144 99.4374 59.0133 98.8627 58.9801 99.758L61.0698 99.1805C60.4921 99.3988 59.9641 99.8132 59.3091 100.156C58.6567 100.496 57.8634 100.706 56.8214 100.595C56.9623 100.399 57.5345 100.092 57.927 99.9127C57.6174 99.8215 57.341 99.8989 57.0619 99.979C56.7827 100.056 56.498 100.139 56.1801 100.023C56.2022 99.7994 56.3764 99.6751 56.6389 99.5701C56.9015 99.4678 57.2581 99.4043 57.6478 99.3435C58.0376 99.2827 58.466 99.2274 58.8668 99.128C59.2648 99.0119 59.6407 98.8627 59.9282 98.6417C59.5882 98.509 59.0216 98.7881 58.5849 98.9318C58.1481 99.0727 57.8607 99.1252 58.1177 98.614C57.7418 99.2689 57.1614 99.3048 56.509 99.3131C55.8484 99.2938 55.1215 99.2357 54.3613 99.7552L54.436 99.2247C54.1955 99.3352 53.6924 99.5949 53.2308 99.5894L54.0269 98.8904C53.4105 99.1943 52.7941 99.0838 52.1915 98.9401C51.589 98.8102 51.0057 98.5781 50.4004 98.7273C51.6581 98.755 51.799 98.9097 51.7603 99.1142C51.7216 99.3242 51.4922 99.5866 52.0367 99.7635C51.6415 99.8685 51.3153 99.8934 51.0389 99.9016C50.7653 99.9044 50.5441 99.8768 50.3562 99.827C49.983 99.7248 49.7508 99.5341 49.5104 99.3297C49.2699 99.1307 49.0211 98.8903 48.6203 98.7107C48.2168 98.5284 47.6584 98.4151 46.7905 98.3958C47.2604 98.3736 48.5236 98.8461 47.769 99.0368C47.4401 98.9539 47.0614 98.8627 46.7214 98.719C46.3814 98.5754 46.0774 98.4179 45.8949 98.2548C43.598 98.0752 46.1769 98.8351 45.1569 99.0313C44.4604 98.3129 43.9932 99.1142 42.9291 99.139L43.0203 98.614C42.7024 98.5146 42.4481 98.4538 42.2463 98.4234C42.0445 98.3847 41.8925 98.3764 41.7737 98.3902C41.5332 98.4179 41.4254 98.5339 41.3259 98.65C41.1269 98.8793 40.9583 99.1086 39.8222 98.6334L40.9914 98.1443C40.5741 98.1084 40.1484 98.0918 39.731 98.0393L40.129 97.5199C39.4242 97.5613 38.9764 97.5143 38.5507 97.401C38.3379 97.343 38.1334 97.2684 37.9039 97.1745C37.6745 97.0805 37.4285 96.9451 37.13 96.8015C37.3069 97.2574 36.6656 97.6663 35.5241 97.2988C34.8717 96.7241 36.1156 96.9949 34.5262 96.4533C34.7639 96.3676 35.0127 96.2654 35.267 96.2737C35.3941 96.2765 35.5213 96.3124 35.6484 96.387C35.7784 96.4561 35.9083 96.5694 36.0382 96.7434C36.1681 96.6025 36.4998 96.5473 36.6269 96.4091C35.9304 95.8178 34.6478 95.5829 34.0867 95.3729C34.294 95.4752 34.5373 95.6023 34.6395 95.7238C34.2249 95.6907 33.802 95.6631 33.3819 95.6216L32.1298 95.4613C31.8644 95.1215 32.2099 95.1022 32.5444 95.08C32.3094 95.0054 32.0911 94.9889 31.8451 94.9612C31.5991 94.9308 31.3226 94.8949 30.9937 94.7457C31.3503 94.439 31.5023 94.0356 32.5001 94.2539C31.74 94.1047 31.0048 93.8892 30.2529 93.6875C30.2281 93.5686 30.029 93.3227 29.8798 93.1044C29.7278 92.8917 29.6393 92.6844 29.8024 92.69C29.327 92.2645 28.5613 92.0766 27.7487 91.8307C27.3506 91.6953 26.9416 91.5488 26.5546 91.3609C26.1704 91.173 25.7972 90.9548 25.5098 90.637C25.3909 90.6563 25.2029 90.6204 24.8768 90.4657C24.57 90.217 24.288 89.9545 24.0089 89.6893C23.7407 89.413 23.4782 89.1311 23.1962 88.8631C22.9143 88.5951 22.6075 88.3436 22.2647 88.106C21.9303 87.8573 21.5516 87.6335 21.101 87.4401C21.0098 87.0091 20.9048 86.6029 20.8329 86.1663C20.2525 85.7353 20.3381 86.1553 20.3354 86.5089C20.3299 86.8626 20.2331 87.1472 19.2408 86.4039C18.5221 85.89 18.5194 85.6607 18.6659 85.4866C18.8096 85.3125 19.0915 85.1992 18.9616 84.9064C18.5304 84.735 17.9113 84.5168 17.3142 84.1382C16.7255 83.7541 16.1948 83.1767 15.9128 82.3754C16.3689 82.6793 16.5513 83.0634 16.9162 83.3977V83.3949ZM7.49341 68.0377C7.60398 68.1869 7.7947 68.3969 7.9329 68.6124C8.08216 68.8252 8.17614 69.0435 8.07664 69.2175C7.7173 69.1402 7.57633 68.9992 7.51829 68.8058C7.46577 68.6069 7.50723 68.3499 7.49341 68.0377ZM5.13841 40.4704C5.23515 40.7743 5.06654 41.1556 4.76249 41.5701C4.79842 41.2274 4.89793 40.8517 5.13841 40.4704ZM68.5494 3.67705C68.5301 3.67982 68.519 3.68258 68.5024 3.68811C67.7423 3.21286 68.0104 3.38969 68.5494 3.67705ZM70.1664 4.51151C70.3627 4.50874 70.3765 4.43414 70.3323 4.33743C70.1664 4.41756 69.7877 4.27388 69.3703 4.07494C69.445 4.24901 69.6246 4.42585 70.1664 4.51151ZM63.9527 102.43L63.5796 102.372C64.3093 102.046 64.1269 102.231 63.9527 102.43Z" fill="#1C3631"/>
<path d="M5.15792 43.7501C5.05288 43.833 4.94785 43.8413 4.84557 43.8468C4.90915 44.0015 5.01142 44.0236 5.15792 43.7501Z" fill="#1C3631"/>
<path d="M25.4685 90.5955C25.4823 90.6093 25.4961 90.6176 25.5099 90.6314C25.5514 90.6231 25.5845 90.6038 25.6094 90.5844L25.4685 90.5955Z" fill="#1C3631"/>
<path d="M43.5235 6.3102C43.178 6.29362 42.9735 6.23007 42.8297 6.15547C42.8353 6.2881 43.0094 6.36823 43.5235 6.3102Z" fill="#1C3631"/>
<path d="M79.1803 7.97084C78.8292 7.794 78.4616 7.6448 78.1023 7.49006C78.6053 7.75256 78.7242 7.94597 78.9177 8.17531C78.9619 8.0565 78.8679 7.78019 79.1803 7.97084Z" fill="#1C3631"/>
<path d="M85.0291 16.5447C85.1894 16.6083 85.2806 16.7741 85.4409 16.8348L85.5791 16.6248C85.0678 16.1607 84.5868 15.9783 85.0291 16.5447Z" fill="#1C3631"/>
<path d="M79.1333 10.0431C79.0504 10.2559 79.1775 10.4244 79.4125 10.5875C79.5313 10.6676 79.6778 10.7477 79.8381 10.8279C79.9957 10.9135 80.1643 11.0075 80.3384 11.1042C80.2997 11.0793 80.261 11.0544 80.2251 11.024C80.4987 10.8334 80.4324 10.6593 80.1975 10.4908C79.9597 10.325 79.5424 10.1896 79.1333 10.0459V10.0431Z" fill="#1C3631"/>
<path d="M80.496 11.1981C80.706 11.3225 80.9161 11.4579 81.0985 11.6126C81.3224 11.4634 80.8857 11.3971 80.496 11.1981Z" fill="#1C3631"/>
<path d="M72.3972 5.1055C72.7012 5.37076 72.8505 4.67999 72.9749 4.93696C73.29 4.76564 72.6266 4.65512 72.1484 4.66617C71.9107 4.66617 71.7145 4.71591 71.7089 4.78499C71.7062 4.8513 71.8858 4.95353 72.3972 5.10274V5.1055Z" fill="#1C3631"/>
<path d="M78.8541 11.6209L78.926 11.0102L78.3179 11.1484L78.8541 11.6209Z" fill="#1C3631"/>
<path d="M73.7682 8.21398L74.8019 8.9158C74.8296 8.82462 74.9954 8.84949 75.1861 8.90199C74.5145 8.53726 73.8152 8.05648 73.7682 8.21674V8.21398Z" fill="#1C3631"/>
<path d="M75.1889 8.90198C75.5372 9.09816 75.8661 9.28605 76.1038 9.31368C75.9131 9.21421 75.504 8.98763 75.1889 8.90198Z" fill="#1C3631"/>
<path d="M77.3504 10.8555C77.2675 10.7588 77.1874 10.6566 77.1044 10.5626L76.372 10.0957C76.6981 10.3499 77.0381 10.582 77.3504 10.8555Z" fill="#1C3631"/>
<path d="M61.1833 3.82899L59.8206 3.7461C59.6547 3.90912 59.9975 4.08872 60.5033 4.10254C60.8433 4.02793 61.3547 4.04451 61.1833 3.82899Z" fill="#1C3631"/>
<path d="M64.7683 6.24112C64.456 6.03389 64.467 5.90679 64.3178 5.67469L64.1022 6.32678L64.7683 6.24112Z" fill="#1C3631"/>
<path d="M61.0036 5.49789C60.8322 5.66091 59.0411 5.70236 60.6719 5.95103C60.7548 5.8709 61.1252 5.84604 61.3325 5.80183C61.4348 5.78248 61.4984 5.75485 61.4624 5.70788C61.4265 5.65815 61.2966 5.58631 61.0064 5.49789H61.0036Z" fill="#1C3631"/>
<path d="M41.174 4.8513L41.503 4.76564L41.221 3.67699L41.174 4.8513Z" fill="#1C3631"/>
<path d="M26.3751 13.9391C27.782 13.3616 26.3005 13.1544 27.63 12.7178C27.7157 12.5189 27.4337 12.588 27.1684 12.6902C26.9003 12.7869 26.6349 12.8864 26.7261 12.6902C26.1014 13.4252 25.615 13.5468 26.3723 13.9419L26.3751 13.9391Z" fill="#1C3631"/>
<path d="M26.7289 12.6875C26.8284 12.5714 26.9334 12.4388 27.0357 12.2868C26.8477 12.4913 26.7703 12.6046 26.7289 12.6875Z" fill="#1C3631"/>
<path d="M103.471 55.5789C103.584 55.2252 103.656 54.866 103.75 54.5095L103.355 55.192C103.402 55.3219 103.432 55.4518 103.474 55.5816L103.471 55.5789Z" fill="#1C3631"/>
<path d="M102.705 53.4927L103.43 53.2523L102.797 52.6058C102.822 52.8462 102.874 53.3131 102.705 53.4927Z" fill="#1C3631"/>
<path d="M8.06574 65.0618L7.88054 65.0397C7.73958 65.2331 7.78933 65.4514 7.88054 65.8879L8.06574 65.0618Z" fill="#1C3631"/>
<path d="M12.8117 76.99L12.7039 76.7939L12.3805 77.4929L12.8117 76.99Z" fill="#1C3631"/>
<path d="M20.2112 84.8344C20.0647 84.6714 19.8657 84.536 19.6805 84.3841C19.4953 84.2321 19.3101 84.0801 19.1691 83.9116C19.8961 84.525 19.733 85.4893 20.2084 84.8344H20.2112Z" fill="#1C3631"/>
<path d="M35.5676 44.7423C34.7367 39.2907 34.1828 35.4014 32.0363 31.6736C35.6072 31.0111 40.1541 33.5391 39.6661 33.1337C37.9482 31.7098 35.5281 30.7177 33.3915 30.6386C32.6793 30.6123 31.3472 30.698 30.5163 30.9781C30.5163 30.9781 31.6209 32.9195 31.9176 33.5721C34.4301 39.0929 34.0147 45.6059 37.1569 50.9388C37.48 51.486 35.9237 47.0726 35.5676 44.7423Z" fill="#1D2826"/>
<path d="M31.001 55.9751C31.001 55.9751 29.5535 54.5414 27.9742 52.6758C27.3774 51.9738 25.554 49.5841 25.2441 49.2249C23.9944 47.7746 22.8437 46.9902 21.2149 46.1068C23.8592 43.4766 27.0344 43.1965 26.4014 43.1932C24.8781 43.18 23.4372 43.5458 22.1513 44.2545C21.5743 44.5742 20.163 45.5861 19.3915 46.6045C19.3915 46.6045 21.8809 47.1649 24.9704 50.3126C25.4683 50.8202 27.3246 53.0021 27.773 53.4405C28.7523 54.393 29.847 55.2203 30.9977 55.9784L31.001 55.9751Z" fill="#1D2826"/>
<path d="M46.1352 45.6652C46.333 40.6157 47.985 35.8562 51.4042 31.5615C54.8234 35.8595 56.4753 40.619 56.6731 45.6652C56.7951 48.8063 55.7763 53.9909 55.9939 53.3944C56.9798 50.7147 57.4974 47.3725 57.4315 45.0192C57.2732 39.4324 55.1795 33.994 51.4042 29.6828C47.6289 33.994 45.5351 39.4324 45.3769 45.0192C45.3109 47.3758 45.8286 50.7147 46.8144 53.3944C47.0321 53.9909 46.0132 48.8063 46.1352 45.6652Z" fill="#1D2826"/>
<path d="M70.7687 31.6736C68.6222 35.4047 68.0683 39.2907 67.2374 44.7423C66.8813 47.0726 65.325 51.4827 65.6481 50.9388C68.7937 45.6059 68.3749 39.0929 70.8874 33.5721C71.1842 32.9162 72.2887 30.9781 72.2887 30.9781C71.4578 30.698 70.1225 30.6123 69.4136 30.6386C67.277 30.7177 64.8601 31.7098 63.139 33.1337C62.651 33.5391 67.1978 31.0111 70.7687 31.6736Z" fill="#1D2826"/>
<path d="M80.6505 44.2545C79.3613 43.5458 77.9237 43.18 76.4004 43.1932C75.7673 43.1998 78.9425 43.4799 81.5869 46.1068C79.9581 46.9902 78.8074 47.7746 77.5577 49.2249C77.2478 49.5841 75.4244 51.9705 74.8276 52.6758C73.2483 54.5414 71.8008 55.9751 71.8008 55.9751C72.9515 55.217 74.0462 54.3897 75.0255 53.4372C75.4739 53.0021 77.3302 50.8169 77.8281 50.3093C80.9176 47.1616 83.407 46.6012 83.407 46.6012C82.6354 45.5861 81.2275 44.5709 80.6472 44.2512L80.6505 44.2545Z" fill="#1D2826"/>
<path d="M51.4009 75.8369C48.707 73.032 48.0047 71.9443 48.229 72.4882C48.9543 74.2483 50.016 75.9292 51.4009 77.33C52.7857 75.9292 53.8474 74.2483 54.5728 72.4882C54.797 71.9443 54.0914 73.032 51.4009 75.8369Z" fill="#1D2826"/>
<path d="M84.594 49.6632C85.4381 49.2084 88 48.2229 88 48.2229C87.6142 47.0858 86.7569 45.3422 86.0711 44.4852C83.0871 40.7673 77.6335 39.5807 72.8856 40.1279C73.3768 37.2109 74.0495 34.1159 76.0838 32.2207C76.6806 31.6637 78.87 30.1673 78.7876 30.0882C78.016 29.3301 76.7268 28.6379 76.2289 28.3973C69.8917 25.3122 62.8323 28.2127 57.9096 32.8799C55.9642 29.2774 53.5606 25.8956 51.4009 22.3986C49.2379 25.8956 46.8342 29.2807 44.8922 32.8799C39.9661 28.2127 32.9068 25.3122 26.5728 28.3973C26.0783 28.6379 24.7858 29.3301 24.0142 30.0882C23.9318 30.1706 26.1244 31.667 26.7179 32.2207C28.7523 34.1192 29.4282 37.2109 29.9162 40.1279C25.1682 39.5807 19.7146 40.7706 16.7307 44.4852C16.0415 45.3422 15.1876 47.0858 14.8018 48.2229C14.8018 48.2229 17.3637 49.2084 18.2078 49.6632C20.407 50.8498 22.2304 52.6461 23.9812 54.571C20.8555 55.5071 18.277 57.8242 17.0307 60.8104C16.5262 62.02 16.2954 63.3022 16.1569 64.113C16.1569 64.113 19.441 64.1427 20.4103 64.2415C23.3119 64.5316 25.9101 65.5962 28.5973 67.1552C29.1612 67.4815 29.7283 67.7881 30.302 68.0781C29.0326 69.2416 28.1555 70.6952 27.7532 72.3399C27.6115 72.9233 27.4004 74.3999 27.3675 75.804C27.3675 75.804 29.5667 75.3821 30.3877 75.3294C33.2266 75.1382 35.9567 75.7974 38.855 75.3063C41.0015 74.9437 42.9501 74.0274 44.6185 72.709C44.6845 74.1263 45.6901 75.6326 46.1418 76.3709C47.5959 78.7572 49.6764 80.9985 51.4009 82.9728C53.1253 80.9985 55.2026 78.7572 56.6599 76.3709C57.1117 75.6326 58.1173 74.1296 58.1833 72.709C59.8516 74.0274 61.8003 74.9437 63.9468 75.3063C66.845 75.7974 69.5751 75.1382 72.414 75.3294C73.2318 75.3854 75.4343 75.804 75.4343 75.804C75.4046 74.4032 75.1936 72.9233 75.0485 72.3399C74.6463 70.6952 73.7692 69.2416 72.4998 68.0781C73.0702 67.7881 73.6406 67.4815 74.2044 67.1552C76.895 65.5962 79.4899 64.5316 82.3947 64.2415C83.3641 64.146 86.6481 64.113 86.6481 64.113C86.5064 63.3022 86.2788 62.02 85.7744 60.8104C84.528 57.8275 81.9463 55.5104 78.8238 54.571C80.5747 52.6461 82.4013 50.8465 84.5973 49.6632H84.594ZM76.4103 30.1673C70.8644 33.5391 71.4051 42.4812 69.6411 48.0152C67.2737 55.4412 61.398 61.0411 53.8969 62.699C60.0495 57.2441 63.0104 48.5789 60.9595 40.4179C60.4155 38.2491 59.5978 36.2089 58.6218 34.2412C63.3368 29.607 70.2544 26.5779 76.4103 30.164V30.1673ZM51.4009 25.1211C53.9628 29.106 56.6534 33.0381 58.424 37.4449C62.1102 46.6177 59.2746 57.0826 51.4009 62.821C43.5238 57.0859 40.6915 46.6177 44.3778 37.4449C46.1484 33.0381 48.8389 29.1093 51.4009 25.1211ZM26.3915 30.1673C32.5474 26.5812 39.465 29.6103 44.18 34.2445C43.204 36.2122 42.3863 38.2524 41.8423 40.4212C39.7914 48.5822 42.7523 57.2441 48.9049 62.7023C41.4004 61.0411 35.5281 55.4445 33.1607 48.0185C31.3967 42.4845 31.9374 33.5424 26.3915 30.1706V30.1673ZM16.6911 47.4187C18.7584 42.3395 25.1682 40.8925 30.1635 41.6341C30.2558 42.2076 30.7438 44.6731 30.9054 45.3652C31.667 48.6118 32.7452 51.7991 34.595 54.5974C37.6416 59.2052 42.2808 62.4221 47.5168 63.8559C41.196 64.7261 34.5917 62.9759 29.7052 58.7339C28.4589 57.6528 26.4772 55.6422 25.4089 54.2513C22.903 51.4134 20.3741 48.6283 16.6911 47.4187ZM42.8809 72.1322C40.9949 73.3781 38.789 74.067 36.4414 73.9978C33.8069 73.922 31.5088 73.5726 29.0062 73.9879C29.115 71.9246 30.0745 70.0294 31.7396 68.7769C31.7429 68.7736 31.7462 68.7703 31.7528 68.767C33.5827 69.5646 35.4819 70.1381 37.5394 70.3754C40.1673 70.6787 42.8743 70.4414 45.3208 69.5844C44.8724 70.5205 43.5865 71.6708 42.8842 72.1355L42.8809 72.1322ZM33.2794 67.8474C30.5427 66.8256 28.2445 64.9733 25.5408 63.8922C23.1075 62.9165 20.5488 62.5672 17.9506 62.7089C18.864 59.2514 21.5875 56.6113 25.0891 55.807C27.1565 58.134 29.2106 60.494 31.7627 62.0563C37.1371 65.349 43.6656 66.3378 49.7688 64.9502C45.8253 69.5218 38.6868 69.8613 33.2794 67.8441V67.8474ZM55.0278 75.9424C53.9035 77.5904 52.6802 79.1626 51.4009 80.6887C50.1216 79.1626 48.8983 77.5871 47.7739 75.9424C46.9958 74.8053 46.1748 73.4276 46.2276 71.9641C46.2737 70.6259 46.8112 69.6437 47.7278 68.6879C48.3576 68.032 50.4381 66.3147 51.4042 65.2205C52.3703 66.3147 54.4508 68.032 55.0806 68.6879C55.9972 69.6437 56.5314 70.6259 56.5808 71.9641C56.6336 73.4276 55.8093 74.8053 55.0344 75.9424H55.0278ZM73.7956 73.9846C71.293 73.5693 68.9948 73.9187 66.3604 73.9945C64.0094 74.0604 61.8069 73.3748 59.9209 72.1289C59.2186 71.6642 57.9327 70.5139 57.4842 69.5778C59.9341 70.4348 62.6378 70.6721 65.2657 70.3689C67.3199 70.1315 69.2223 69.558 71.0523 68.7604C71.0556 68.7637 71.0589 68.767 71.0655 68.7703C72.7306 70.0261 73.6901 71.918 73.7989 73.9813L73.7956 73.9846ZM84.8479 62.7056C82.2496 62.5606 79.691 62.9133 77.2577 63.8889C74.5539 64.97 72.2558 66.8256 69.5191 67.8441C64.1117 69.8613 56.9765 69.5218 53.0297 64.9502C59.1329 66.3378 65.6613 65.3457 71.0358 62.0563C73.5879 60.494 75.642 58.134 77.7094 55.807C81.2077 56.6113 83.9345 59.2514 84.8479 62.7089V62.7056ZM77.3895 54.248C76.3213 55.6389 74.3396 57.6495 73.0933 58.7306C68.2068 62.9726 61.6025 64.7228 55.2817 63.8526C60.5144 62.4188 65.1569 59.2019 68.2035 54.5941C70.0532 51.7958 71.1281 48.6085 71.8931 45.3619C72.0547 44.6698 72.5426 42.2043 72.635 41.6308C77.6302 40.8859 84.04 42.3362 86.1074 47.4154C82.4244 48.6283 79.8921 51.4101 77.3895 54.248Z" fill="#1D2826"/>
</svg>
