<svg width="122" height="122" viewBox="0 0 122 122" fill="none" xmlns="http://www.w3.org/2000/svg">
<circle cx="61" cy="61" r="61" fill="#D47757"/>
<path d="M111.591 61.2245C111.563 61.7052 112.022 61.5312 112.105 61.6058C111.984 60.7934 111.469 61.2466 111.591 61.2245Z" fill="white"/>
<path d="M109.894 53.485L110.104 53.5928L109.446 52.5401L109.894 53.485Z" fill="white"/>
<path d="M108.241 46.4033C107.967 46.8509 108.169 47.4671 108.462 48.1468C108.769 48.821 109.098 49.5753 109.106 50.2385L108.979 50.4844L109.731 50.9182C109.618 50.5369 109.477 50.1307 109.33 49.7218C109.181 49.3128 109.04 48.8956 108.871 48.5005C108.551 47.7075 108.294 46.9642 108.238 46.4005L108.241 46.4033Z" fill="white"/>
<path d="M108.512 42.1149C108.318 42.4603 107.948 41.4076 108.766 43.0185C108.766 42.9218 108.772 42.8914 108.777 42.8333C108.714 42.6841 108.633 42.4769 108.515 42.1149H108.512Z" fill="white"/>
<path d="M108.777 42.8361C108.827 42.2614 109.09 43.5656 108.777 42.8361Z" fill="white"/>
<path d="M107.191 39.5425L107.871 40.3797C107.948 40.109 107.6 39.2386 107.862 39.5011C107.279 38.581 107.213 38.8656 107.193 39.5453L107.191 39.5425Z" fill="white"/>
<path d="M106.254 38.9015C106.37 39.0424 106.486 39.1833 106.591 39.3325C106.621 39.2137 106.591 39.0728 106.254 38.9015Z" fill="white"/>
<path d="M107.282 40.2637L106.591 39.3325C106.538 39.5232 106.312 39.6448 106.887 39.7691C106.638 39.7829 106.931 39.8907 107.282 40.2637Z" fill="white"/>
<path d="M107.437 40.8992C107.478 41.1976 107.547 41.5264 107.514 41.6811C107.481 41.8359 107.379 41.7972 107.047 41.3827C107.475 42.2614 107.768 42.5957 107.876 42.4769C107.926 42.4189 107.926 42.2448 107.862 41.9768C107.796 41.7088 107.674 41.3358 107.437 40.8992Z" fill="white"/>
<path d="M107.345 46.2983C107.351 46.558 107.359 46.815 107.351 47.0747L107.779 47.619C107.672 47.4836 107.625 47.1217 107.578 46.8094C107.525 46.4972 107.453 46.2403 107.345 46.2983Z" fill="white"/>
<path d="M104.446 33.6378C104.269 33.6737 104.255 34.1711 104.114 34.3479C104.31 34.5275 104.49 34.7154 104.673 34.9033C104.584 34.4971 104.263 33.8146 104.446 33.6378Z" fill="white"/>
<path d="M104.114 34.3479L103.255 33.5411C103.774 34.4142 103.99 34.4999 104.114 34.3479Z" fill="white"/>
<path d="M105.383 39.1253L105.728 39.4679L106.055 39.8216L106.712 40.54C106.22 39.9514 105.742 39.3657 105.214 38.8131L105.383 39.1253Z" fill="white"/>
<path d="M101.967 29.9739C102.201 30.0706 102.431 30.1756 102.663 30.2779L102.085 29.9739L101.491 29.6921L101.967 29.9739Z" fill="white"/>
<path d="M100.084 27.7248C100.651 27.8878 100.062 26.8682 100.551 27.1307C99.9764 26.5587 99.3268 26.2133 98.727 25.9287C99.2688 26.3156 99.6944 26.8792 100.081 27.7248H100.084Z" fill="white"/>
<path d="M97.7568 25.4314C98.036 25.611 98.3676 25.7603 98.7297 25.9288C98.4368 25.7271 98.1217 25.553 97.7568 25.4314Z" fill="white"/>
<path d="M102.24 31.886C102.273 31.7561 102.392 31.466 102.107 30.8747L101.986 31.5158C102.063 31.629 102.152 31.7561 102.24 31.886Z" fill="white"/>
<path d="M101.983 31.5379V31.5158C101.715 31.1123 101.527 30.8305 101.447 30.7117C101.516 30.8167 101.676 31.0654 101.983 31.5379Z" fill="white"/>
<path d="M102.304 31.9772C102.282 31.944 102.262 31.9164 102.24 31.8832C102.226 31.944 102.229 31.9744 102.304 31.9772Z" fill="white"/>
<path d="M104.382 36.329C103.821 35.8814 102.901 34.8508 103.21 36.1964C103.724 36.4395 103.542 35.6659 104.382 36.329Z" fill="white"/>
<path d="M102.138 32.7647C102.34 33.1101 102.514 33.472 102.702 33.8257C102.793 33.7373 102.829 33.4554 103.116 33.6627C102.787 33.3615 102.475 33.0548 102.138 32.7647Z" fill="white"/>
<path d="M101.676 32.3723L102.138 32.7647L101.914 32.3806L101.676 32.3723Z" fill="white"/>
<path d="M98.8403 27.2688C98.5916 27.139 98.3704 26.9704 98.1548 26.7743C97.9337 26.5836 97.7126 26.3764 97.4804 26.1526C97.6822 26.4372 97.9061 26.7079 98.1161 26.987C98.3262 27.2661 98.5446 27.5369 98.7685 27.7911C98.9426 27.7662 99.3406 27.8187 98.8403 27.2661V27.2688Z" fill="white"/>
<path d="M100.391 29.3301C100.361 29.308 100.327 29.2749 100.297 29.2555C100.311 29.3356 100.336 29.3909 100.391 29.3301Z" fill="white"/>
<path d="M92.8699 21.7952C92.881 21.8394 92.8837 21.8836 92.892 21.9278C92.9169 21.9112 92.9362 21.8946 92.9611 21.8808L92.8699 21.7952Z" fill="white"/>
<path d="M98.7768 27.9375C99.0449 28.3879 99.3351 28.5454 99.6419 28.6753C99.3517 28.4128 99.0587 28.1226 98.7685 27.7911C98.6911 27.8021 98.6524 27.8242 98.7768 27.9348V27.9375Z" fill="white"/>
<path d="M96.3471 24.3069C96.477 24.5638 96.6401 24.8374 96.8032 25.1303C96.7313 24.8291 96.5047 24.2848 96.3471 24.3069Z" fill="white"/>
<path d="M100.291 29.0372C100.314 29.0538 100.336 29.0649 100.355 29.0842C100.327 28.8853 100.303 28.935 100.291 29.0372Z" fill="white"/>
<path d="M100.291 29.0372C100.073 28.8687 99.852 28.7775 99.6419 28.678C99.8658 28.9019 100.087 29.1008 100.3 29.2583C100.286 29.1865 100.286 29.1036 100.294 29.0372L100.291 29.0372Z" fill="white"/>
<path d="M89.5115 22.9971C89.6801 22.8507 90.0782 22.8977 90.5149 23.116C90.7305 23.2265 90.9599 23.3729 91.1644 23.5691C91.3635 23.7708 91.5431 24.0084 91.6786 24.282C92.7234 24.7545 93.1463 23.2126 92.892 21.9278C92.74 22.0577 92.6405 22.1682 91.5459 21.646C91.6316 21.8698 92.0655 22.3699 92.3143 22.8093C92.5714 23.2403 92.6764 23.5691 92.1789 23.4006C91.5321 22.9806 91.3082 22.765 91.1976 22.5578C91.0898 22.3506 91.0926 22.1572 90.8687 21.8367C90.9488 22.2484 90.4402 22.0991 89.893 21.961C89.3484 21.8118 88.732 21.7206 88.6325 22.1351C89.0499 22.3036 89.4452 22.5081 89.8487 22.7043C89.7907 22.8175 89.2959 22.6822 89.5115 22.9971Z" fill="white"/>
<path d="M94.5726 23.453L94.9651 23.7514C94.6168 23.3038 94.4316 22.9142 94.0944 22.1709C93.3315 21.7924 93.0993 21.8062 92.9611 21.8808C93.5526 22.4279 94.1635 22.9557 94.7384 23.5193L94.5726 23.453Z" fill="white"/>
<path d="M96.5489 25.2822C95.9546 25.3264 94.9595 24.6909 95.1171 25.542C95.3797 25.7768 95.5676 25.9233 95.7141 26.02C95.8634 26.1139 95.974 26.1526 96.079 26.1747C96.2891 26.2189 96.4632 26.194 96.8308 26.4317C95.1586 24.8512 97.4804 26.7273 96.5212 25.332C96.8944 25.6055 97.1957 25.8846 97.4776 26.1526C97.2316 25.81 97.0022 25.4674 96.8032 25.1303C96.8115 25.1524 96.8142 25.1689 96.8198 25.191L96.8281 25.1966C96.8281 25.1966 96.8225 25.1966 96.8198 25.1993C96.8474 25.3126 96.8446 25.3624 96.7894 25.2574C96.7811 25.2574 96.759 25.238 96.7479 25.2297C96.6899 25.2656 96.618 25.2739 96.5461 25.2795C96.1509 24.7241 96.5599 25.1164 96.7479 25.2297C96.77 25.2187 96.7977 25.2159 96.817 25.1993C96.817 25.1966 96.817 25.191 96.817 25.1883C96.5213 24.9313 96.2089 24.6937 95.8966 24.4588L94.9623 23.7487C95.2691 24.1411 95.739 24.539 96.5461 25.2795L96.5489 25.2822Z" fill="white"/>
<path d="M101.718 35.6963C101.718 35.6162 101.748 35.5996 101.773 35.5775C101.646 35.4863 101.582 35.4614 101.718 35.6963Z" fill="white"/>
<path d="M101.466 34.7734C101.61 34.8729 101.845 34.8867 102.088 35.3592C102.215 35.8206 101.892 35.478 101.773 35.5802C102.052 35.7764 102.655 36.3511 102.323 35.3758L102.182 35.2763C101.837 34.4335 101.693 33.1128 101.834 33.2095C101.624 33.6737 101.497 34.0439 101.466 34.7762V34.7734Z" fill="white"/>
<path d="M99.1499 29.9684C98.7076 29.5125 98.2267 29.0952 97.7568 28.6697L98.0691 29.6589L98.2267 29.4627C98.8348 30.3442 98.9122 29.985 99.1499 29.9656V29.9684Z" fill="white"/>
<path d="M92.8533 21.4691L93.3702 21.2509C92.9362 21.179 92.4802 21.1431 92.0407 21.0934L92.8505 21.4691H92.8533Z" fill="white"/>
<path d="M90.8244 19.9494L91.1617 19.6565C90.9322 19.5902 90.6918 19.535 90.4596 19.4742L90.8244 19.9467V19.9494Z" fill="white"/>
<path d="M19.6325 85.3242L19.9946 85.7027C19.8398 85.5148 19.7265 85.3988 19.6325 85.3242Z" fill="white"/>
<path d="M17.8911 82.0499L17.6562 82.0637C17.8414 82.1659 17.952 82.188 17.8911 82.0499Z" fill="white"/>
<path d="M32.3722 17.4406C31.4573 17.54 30.3102 17.5262 30.6668 17.8799L31.1477 18.1396C31.59 17.7528 31.9991 17.5566 32.3722 17.4406Z" fill="white"/>
<path d="M11.5724 51.9488C11.6333 51.8852 11.6941 51.8189 11.7549 51.7526C11.636 51.5316 11.5255 51.3243 11.426 51.1392C11.4729 51.3851 11.5061 51.6587 11.5724 51.9488Z" fill="white"/>
<path d="M13.4244 52.8634L12.9434 53.7918C13.0899 53.5873 13.2475 53.2889 13.4244 52.8634Z" fill="white"/>
<path d="M33.6631 99.5844C33.9146 99.5651 34.1661 99.5458 34.4232 99.5126C33.6631 99.0042 33.8621 99.4242 33.6631 99.5844Z" fill="white"/>
<path d="M67.0837 10.3283C66.3982 10.052 65.8371 9.90283 65.3395 9.81441C66.1743 10.1957 66.8017 10.6931 67.0837 10.3283Z" fill="white"/>
<path d="M14.4471 86.515C14.6959 86.7748 14.8562 86.8549 14.9419 86.7941C14.6931 86.5261 14.5107 86.3934 14.4471 86.515Z" fill="white"/>
<path d="M63.2665 9.64313C63.3909 9.70116 63.5125 9.73431 63.6369 9.78405C64.1676 9.75089 64.7038 9.70389 65.3395 9.81441C64.7259 9.53258 63.9934 9.36959 63.2665 9.64313Z" fill="white"/>
<path d="M98.2322 87.5816C98.2792 87.5484 98.3234 87.5014 98.3704 87.4738C98.3262 87.4241 98.282 87.4849 98.2322 87.5816Z" fill="white"/>
<path d="M110.543 68.4389C110.543 68.6738 110.496 69.0496 110.458 69.406C110.513 69.2374 110.546 68.9473 110.543 68.4389Z" fill="white"/>
<path d="M82.2143 14.5006C82.3166 14.4868 82.7146 14.7079 82.2143 14.5006Z" fill="white"/>
<path d="M83.6461 17.3549C83.5217 17.3521 83.4139 17.3742 83.3504 17.4654C83.4416 17.3825 83.5411 17.3521 83.6461 17.3549Z" fill="white"/>
<path d="M58.0175 12.5361C58.0037 12.5361 57.9898 12.5361 57.9733 12.5361C58.128 12.6273 58.1004 12.6079 58.0175 12.5361Z" fill="white"/>
<path d="M82.8418 15.0588C82.6897 14.9151 82.5045 14.7631 82.2917 14.6194C82.3746 14.7023 82.5405 14.8405 82.8418 15.0588Z" fill="white"/>
<path d="M82.8473 14.8046C83.0049 14.9068 83.1292 14.9842 83.2453 15.0616C83.3421 15.0201 83.3117 14.9483 82.8473 14.8046Z" fill="white"/>
<path d="M81.5178 14.2133C81.8025 14.3349 82.054 14.473 82.2917 14.6194C82.2088 14.5476 82.1812 14.5034 82.2143 14.5006C82.0678 14.4426 81.8605 14.3597 81.5205 14.2133H81.5178Z" fill="white"/>
<path d="M65.9753 108.913C66.0085 108.924 66.0472 108.929 66.0858 108.943C66.553 108.683 66.3401 108.741 65.9753 108.913Z" fill="white"/>
<path d="M25.2823 29.6728C25.2934 29.6534 25.2934 29.6368 25.3044 29.6175C25.2851 29.6313 25.2602 29.6451 25.2436 29.6589L25.2851 29.6755L25.2823 29.6728Z" fill="white"/>
<path d="M24.3951 31.2063C24.431 30.2613 24.7544 29.9684 25.2409 29.6562C24.771 29.4821 24.2928 29.308 23.8201 29.1478C24.0026 29.8441 24.1933 30.5293 24.3923 31.2035L24.3951 31.2063Z" fill="white"/>
<path d="M24.9698 92.3949L24.5082 91.2041C25.2518 91.5218 25.741 91.9086 26.0119 92.0634C26.2911 92.2126 26.3353 92.1435 26.2026 91.5218C25.8958 91.7401 25.5475 91.6379 25.1744 91.3754C24.804 91.1101 24.3977 90.6929 24.0356 90.2425C23.6624 89.7976 23.2893 89.3556 22.9272 89.071C22.5817 88.7725 22.2417 88.6344 21.9127 88.8167L21.7082 87.985C21.8271 88.1785 21.921 88.1564 22.0399 88.3498C21.7358 86.6947 20.4865 88.0237 19.5605 86.2001C19.2869 85.5397 19.2483 84.9981 19.6325 85.3242L18.5323 84.1554C18.43 83.9509 18.4576 83.8404 18.5267 83.8321C18.5958 83.8266 18.7147 83.9205 18.817 84.1223C18.3941 83.4508 18.0181 82.7518 17.6118 82.0665H17.6588C17.2884 81.8676 16.6527 81.3067 16.3486 81.0221C16.2934 80.3755 16.6195 81.2376 16.7273 81.0165C16.4371 80.6601 16.1303 80.3092 15.8511 79.9417C15.9313 79.6129 16.1579 79.6737 16.4039 79.9168C16.661 80.1572 16.9429 80.58 17.106 81.0082C17.5372 80.1379 17.3409 79.9417 16.9982 79.5963C16.6803 79.2482 16.2021 78.7508 16.1441 77.3665C16.3376 77.734 16.5615 78.0877 16.766 78.4469C17.0231 77.9219 16.9733 77.4798 16.9042 76.9686C16.8323 76.4574 16.6997 75.891 16.7356 75.1698C16.6554 75.3633 16.5559 76.1093 16.379 76.6757C16.2021 77.2394 15.9506 77.6152 15.547 76.999C15.5277 76.579 15.4006 76.0679 14.8754 75.4213C15.384 75.2555 15.055 74.5758 14.7676 73.6805L15.4669 73.559C15.2264 73.1058 15.0412 72.9152 14.8505 72.777C14.6598 72.6389 14.4663 72.5532 14.2424 72.299C14.0544 71.1744 14.5354 70.8401 14.9472 70.4919C14.8477 69.6077 14.6847 69.9476 14.4856 70.2598C14.2866 70.5693 14.0517 70.8539 13.7974 69.8067C13.7974 69.4226 13.767 69.0745 13.7117 68.7401C13.6702 68.403 13.6067 68.0798 13.5182 67.7482C13.3441 67.085 13.0566 66.397 12.794 65.5046C12.9571 64.4242 13.239 65.6565 13.4132 65.2586L12.7774 64.3606C12.7719 64.1285 12.9516 64.1949 13.0428 64.228C12.783 63.4461 12.3296 64.2031 12.1002 62.9432C11.7133 62.7829 11.9593 62.117 12.2412 61.3185C12.3877 60.9178 12.5314 60.484 12.5839 60.053C12.642 59.6219 12.5922 59.1881 12.4098 58.7875C12.6392 58.4172 12.8272 58.9975 13.1119 58.8953C12.9018 57.8259 12.8327 57.3562 12.7332 56.9362C12.6392 56.5135 12.5425 56.1432 12.2633 55.2121C12.4789 54.7313 12.6919 54.256 12.9434 53.7918C12.2248 54.7948 11.8515 53.3138 11.5695 51.9516C11.2461 52.2998 10.9642 52.6037 10.8177 52.8137L10.8122 51.761C10.8066 51.4073 10.837 51.0619 10.8481 50.711C11.0167 50.4927 11.2074 50.7497 11.4203 51.1393C11.3954 50.99 11.3677 50.8491 11.3401 50.7358C11.7602 50.0782 12.0698 50.548 12.3407 51.1337C12.15 51.3437 11.9482 51.551 11.7492 51.7527C12.0809 52.3329 12.4678 52.8717 12.8935 52.8468C12.8355 52.7059 12.8106 52.449 12.8189 52.1727C12.9101 52.3219 12.9986 52.4213 13.0787 52.3771C13.1672 52.3274 13.0373 52.0925 12.9377 51.7388L13.8084 51.4681L13.5265 51.2968L14.0544 50.1059C14.223 49.7107 14.4386 49.3267 14.6294 48.9426C14.563 48.4535 14.4691 47.9645 14.3806 47.4588C14.3115 46.9615 14.2424 46.4448 14.2009 45.8977C14.1788 45.6241 14.165 45.3395 14.1622 45.0466C14.1622 44.7538 14.1871 44.4581 14.2175 44.1431C14.2507 43.8309 14.2977 43.5076 14.3613 43.1677C14.4248 42.8306 14.5022 42.4742 14.6266 42.1178C14.8505 43.0268 15.4282 42.6345 16.0418 42.9439C15.5443 43.165 15.4171 43.7342 15.3121 44.4001C15.2651 44.7344 15.2126 45.0881 15.1518 45.4528C15.0965 45.8175 15.0108 46.185 14.856 46.5304C15.1822 45.8065 15.4337 46.0828 15.4779 46.3066C15.536 45.3865 15.688 44.4885 15.8069 43.5629C16.0556 43.6983 16.2049 43.6043 16.3486 43.4081C16.4951 43.212 16.661 42.9218 16.907 42.651C16.2906 42.6676 16.3293 42.1371 16.5421 41.4519C16.5946 41.2806 16.6582 41.0982 16.7273 40.9158C16.8047 40.7362 16.8821 40.5539 16.9567 40.3743C17.106 40.0151 17.2387 39.6697 17.2884 39.3851C17.6478 39.4984 17.8661 39.9073 17.1779 41.054C17.8882 40.5843 17.8108 40.0233 17.7252 39.4376C17.6312 38.8518 17.5676 38.266 18.2393 37.8046C18.0817 38.0947 17.9435 38.2218 18.043 38.4263C18.09 38.0118 18.4079 37.426 18.7175 37.0143C19.0326 36.6054 19.3615 36.3899 19.3781 36.6579L19.2067 36.937C19.5273 36.4976 19.9115 35.9312 20.2985 35.315C20.6965 34.7072 21.1277 34.0717 21.4843 33.4472C21.8492 32.831 22.1919 32.2674 22.3854 31.7811C22.5817 31.2975 22.6535 30.9134 22.5319 30.7034C22.6369 30.7642 23.2146 31.6457 23.2865 31.8695C23.2976 30.2227 23.3667 28.5123 23.5684 26.8047C23.7343 27.2137 24.4032 27.5038 24.9035 27.9044C25.4038 28.3051 25.7438 28.8135 25.2932 29.612C25.5116 29.4656 25.7548 29.3026 26.0119 29.0511C26.269 28.8024 26.526 28.4571 26.8273 27.9901C26.4928 28.1448 25.3679 27.7773 25.6664 27.3822C26.4707 27.2385 26.7167 27.1667 26.9849 27.0562C27.1175 27.0009 27.2557 26.9401 27.4658 26.8489C27.6759 26.7633 27.9551 26.65 28.3918 26.5339C27.8777 26.7495 27.4713 25.4259 28.1513 24.8927C28.1762 25.122 29.0192 25.7962 28.8755 26.0946L29.2597 24.9396C29.3924 24.5528 29.5444 24.1853 29.6909 23.8013C29.4145 24.3014 30.2797 24.6772 30.8573 24.6716C30.697 24.6412 31.0536 24.3704 31.4903 24.0527C31.9353 23.746 32.4826 23.4144 32.6678 23.2017L31.7833 23.4752C32.795 22.8811 32.9995 22.1655 33.2538 21.483C33.3754 21.1376 33.4998 20.784 33.7209 20.4413C33.9448 20.1015 34.2599 19.7506 34.7934 19.4743C34.6663 19.8445 34.998 21.1791 36.1008 20.7259C36.1395 20.5215 36.192 20.1761 36.2833 19.7506C36.3745 19.325 36.4961 18.8084 36.6868 18.2999C36.8748 17.7832 37.118 17.2444 37.4276 16.7416C37.7316 16.2304 38.1186 15.7911 38.5719 15.454L39.1082 15.6115C39.5642 15.255 40.0175 14.8875 40.4957 14.5615C40.1779 15.1832 39.5698 16.2939 38.934 17.3688C38.6106 17.8965 38.3066 18.4768 38.0108 18.9741C37.7178 19.4798 37.4386 19.9219 37.2009 20.2728C38.1103 20.1236 37.6183 20.538 38.7571 19.9163C39.3155 20.0131 38.3674 20.6983 38.0412 20.8862L39.4177 20.3059L39.7605 20.1595L40.1115 20.0324L40.8108 19.7782C40.5952 19.466 41.0403 19.0626 41.5019 18.6647C41.9718 18.2917 42.461 17.9352 42.2924 17.6672C41.3471 18.2889 40.4653 19.0101 39.5808 19.6787C39.3597 19.372 39.5615 18.7034 40.0977 18.0015C40.3686 17.6561 40.7113 17.2804 41.137 16.9847C41.5599 16.6863 42.0492 16.4293 42.5799 16.2553C43.2045 16.3271 42.6573 17.6451 42.7955 17.8578C42.8811 17.6948 43.3068 17.3715 43.7629 17.1505C44.2162 16.9267 44.6806 16.7554 44.8049 16.8106L44.0697 17.4793C44.6806 17.4213 45.0592 17.0317 45.496 16.6808C45.9299 16.3354 46.4358 16.0646 47.2235 16.2028C47.4723 16.1613 47.8869 16.2774 48.2407 16.3824C48.5945 16.4846 48.8792 16.5399 48.8682 16.316C47.8952 15.6695 47.0466 13.1744 47.464 12.4256C47.5635 12.4311 48.2988 12.4698 49.081 12.5444C49.2772 12.5638 49.4763 12.5803 49.6698 12.608C49.866 12.6384 50.054 12.6743 50.2281 12.7074C50.5764 12.7765 50.8694 12.8539 51.0324 12.9313C51.5134 13.1827 51.2591 13.6303 51.002 14.0669C50.7422 14.5035 50.4796 14.929 50.8804 15.1473C50.8721 14.9428 51.2784 14.6167 51.4526 14.5035C52.0026 14.5808 51.3448 15.1611 52.4532 14.8709C52.5306 14.0973 54.7806 14.6388 52.8982 14.1719C53.4455 13.995 53.7495 13.995 54.0812 14.0144C54.4129 14.0365 54.7667 14.0614 55.4274 14.0061C55.1952 13.7795 55.4522 13.3457 55.9249 12.9285C56.3975 12.5196 57.083 12.094 57.669 11.9863C57.6082 12.1797 57.8819 12.4229 58.009 12.5334C58.6033 12.5334 59.1312 12.5555 59.6177 12.5859C60.107 12.6328 60.5547 12.6992 60.9998 12.7544C61.442 12.8097 61.8787 12.8649 62.3431 12.923C62.8047 12.992 63.2939 13.0528 63.8412 13.0943C64.032 13.2877 65.0574 13.5972 64.5793 13.879C64.9027 13.7823 65.215 13.5668 65.8867 13.6331C67.089 14.4427 64.3941 13.5447 65.2786 14.4482C65.4085 14.0337 67.0669 14.0365 68.0537 13.9674C68.0095 13.7878 67.8519 13.6662 67.6253 13.5833C67.3959 13.5032 67.1001 13.4562 66.7739 13.4673C66.1244 13.4728 65.3836 13.5833 64.8944 13.6607C64.9414 13.1965 65.4057 12.7738 66.1769 12.4532C66.5611 12.2985 67.0227 12.1493 67.5368 12.0664C68.051 11.989 68.6204 11.9448 69.2285 11.9448C70.1876 11.989 70.3507 12.2129 70.3286 12.3676C70.3037 12.5278 70.0881 12.6605 70.2595 12.6301C71.1108 12.8677 71.741 12.9313 72.2579 12.9119C72.7693 12.9147 73.1645 12.8346 73.5404 12.7627C73.9164 12.6909 74.2757 12.6301 74.7069 12.6798C75.1381 12.7296 75.6329 12.9257 76.2879 13.3209C77.2084 14.2603 75.948 14.4537 76.0558 14.9428C75.3039 14.8102 74.7898 14.5283 74.3282 14.2575C73.8638 14.0006 73.4603 13.7353 72.96 13.6055L74.0988 14.2216C73.5764 14.2796 72.573 14.1498 72.0893 13.8348C72.2855 14.0282 72.7361 14.2327 73.3331 14.4454C73.6317 14.5532 73.9689 14.661 74.331 14.777C74.6875 14.9041 75.069 15.0395 75.4642 15.1804C75.8567 15.3213 76.2686 15.4567 76.6722 15.6142C77.073 15.78 77.471 15.9513 77.8579 16.1226C78.2422 16.2995 78.6236 16.4597 78.9608 16.6587C79.3008 16.8521 79.6159 17.0455 79.8923 17.2389C80.4037 17.25 81.2412 17.4019 80.9897 17.0289L80.1798 16.7554C79.6601 15.9955 81.9267 16.8189 81.0339 16.1696C81.6392 16.2442 82.2722 16.3547 82.9466 16.5316C83.2811 16.6255 83.6238 16.7416 83.9638 16.8991C84.2955 17.0704 84.6272 17.2804 84.9534 17.5456L84.8815 18.2861C84.9534 18.0982 84.1545 17.4019 83.6542 17.3577C84.0246 17.3936 84.4558 17.9076 84.9257 18.358C85.1607 18.5845 85.4067 18.789 85.6582 18.9216C85.907 19.0626 86.1668 19.1206 86.4405 19.0349C86.2 18.6978 85.965 18.3497 85.708 18.0292C86.0093 18.0982 86.3271 18.1728 86.6616 18.2557C86.996 18.3359 87.3443 18.4243 87.6926 18.5293C88.0381 18.6398 88.3947 18.7586 88.7181 18.9355C89.0415 19.1123 89.3455 19.3223 89.6192 19.582C89.4505 18.6426 89.304 19.4466 88.8728 18.1894C88.9889 18.8415 88.1901 18.3165 87.4493 17.8357C87.0762 17.5954 86.7224 17.3633 86.4985 17.3052C86.2718 17.25 86.1944 17.3494 86.3741 17.7556C86.1447 17.0925 85.7826 16.7775 85.3763 16.4514C84.97 16.1254 84.5249 15.7855 84.0606 15.1252C83.997 15.3434 84.3121 15.7358 83.2424 15.0616C83.1622 15.0948 83.0047 15.1058 82.9079 15.1113C82.8775 15.0892 82.8665 15.0782 82.8388 15.0588C82.8582 15.0782 82.8692 15.0948 82.8886 15.1141C82.825 15.1196 82.8167 15.1224 82.9079 15.1334C83.1318 15.3573 83.2922 15.5728 83.3226 15.7275C82.9273 15.8187 82.3026 15.6225 81.6724 15.4291C81.0394 15.244 80.4147 15.0312 80.0609 15.0174C79.4362 14.6195 80.4424 14.9096 80.1743 14.5256L79.6436 14.5035H79.1073C79.2124 14.0116 77.5843 13.0169 79.3229 13.3899L77.8579 12.7876C77.4737 12.4836 76.9734 12.2294 76.4759 12.0167C75.9756 11.8122 75.4753 11.6575 75.0635 11.6492C74.3697 11.3397 73.0954 11.6602 73.8251 11.4641C73.4133 11.4033 73.0014 11.3314 72.5896 11.2789L71.3485 11.1491L71.354 11.022C70.1738 10.6904 68.8885 10.7042 67.6032 10.5716C66.3013 10.5108 64.9966 10.3091 63.6339 9.7841C63.2193 9.81726 62.7992 9.85041 62.3099 9.85594C61.8235 9.87805 61.2679 9.86699 60.5851 9.78134L60.3226 9.34477C59.7919 9.39174 58.9958 9.31714 58.2688 9.26188C57.5446 9.21214 56.8923 9.18727 56.6767 9.44148C56.3754 9.17346 55.8945 9.04912 55.3196 9.0132C55.0321 8.99386 54.717 8.99662 54.3908 9.01596C54.0647 9.04083 53.7247 9.09609 53.3792 9.15135C52.6909 9.27293 51.9805 9.40003 51.3365 9.552C50.6897 9.70397 50.0982 9.82831 49.6228 9.86147L49.6587 10.4251C49.5011 10.45 49.3436 10.4776 49.186 10.508C49.0312 10.5467 48.8765 10.5854 48.7217 10.6296C48.4121 10.7153 48.0997 10.812 47.7846 10.917C47.4668 11.022 47.1434 11.138 46.8034 11.2651C46.4689 11.3977 46.1234 11.558 45.7558 11.7183L45.9824 12.1686C45.3882 12.5555 44.5258 12.6798 43.5722 12.8815C43.094 12.9727 42.5854 13.0639 42.0685 13.1772C41.5599 13.307 41.0458 13.4728 40.551 13.6801C40.6174 13.4507 41.1453 13.296 41.5461 13.2601C40.8495 13.2324 40.1944 13.3955 39.5753 13.6524C38.9644 13.926 38.395 14.3156 37.8394 14.6969C37.2783 15.0671 36.7614 15.5009 36.2197 15.8297C35.6779 16.1641 35.1168 16.4045 34.517 16.526C34.1024 16.9737 33.7099 17.1284 33.2925 17.2223C33.3395 17.1947 33.3754 17.1615 33.4031 17.1284C33.3478 17.1533 33.2704 17.1975 33.193 17.2417C32.9249 17.2942 32.6485 17.3494 32.3665 17.4379C32.6374 17.4102 32.8834 17.3633 33.0852 17.3052C32.7038 17.5373 32.1675 17.9711 31.6755 18.4298L31.1448 18.1369C31.1034 18.1728 31.0647 18.1949 31.0232 18.2336C30.3598 18.427 30.7219 18.7282 31.236 18.8719C31.0011 19.1206 30.8186 19.3914 30.697 19.6318C30.2382 19.43 29.9231 19.7423 29.5886 20.0628C29.42 20.2231 29.2486 20.3833 29.0469 20.4855C28.8479 20.5933 28.624 20.643 28.342 20.574C28.3006 20.889 27.698 21.472 27.1452 22.0909C26.6172 22.7375 26.1473 23.4199 26.3298 23.8841C26.233 23.8068 26.0478 23.8897 26.3077 23.652C25.6774 24.0361 25.0832 24.4727 24.7929 25.1137L24.0991 24.8402L23.8393 25.7161L23.6154 26.6086C22.6591 27.0147 22.1947 27.1529 22.4877 26.0919C22.2279 26.6555 22.0288 27.0313 21.8713 27.3187C21.722 27.6116 21.6004 27.8077 21.4898 27.9929C21.2687 28.3659 21.0614 28.703 20.738 29.706L20.4588 29.3523C20.0304 29.9215 19.8037 31.1621 19.2537 31.2754C18.8501 31.4633 18.3692 31.9634 17.8108 32.6376C17.6726 32.8089 17.5261 32.9858 17.3852 33.1792C17.2497 33.3781 17.1088 33.5826 16.9623 33.7953C16.6776 34.2264 16.3763 34.6851 16.0612 35.1575C14.8781 37.1028 13.6675 39.3768 12.5121 41.1092C13.2694 41.007 12.9322 41.3773 12.5342 41.8525C12.15 42.3333 11.6828 42.9246 12.1196 43.1788C11.7492 43.2893 11.376 43.7646 11.3733 43.0489C11.3125 43.3087 11.2406 43.5435 11.1632 43.7646C11.0913 43.9856 11.0222 44.1956 10.9448 44.389C10.7928 44.7786 10.6325 45.1213 10.4915 45.4501C10.2013 46.1021 10.0493 46.7211 10.2566 47.5334C9.89725 47.6826 9.94976 46.978 9.71758 47.1328C9.73416 47.3151 9.78945 47.8512 9.5545 48.0142C9.31955 48.1745 9.39142 47.6495 9.35548 47.2875C9.22004 47.8153 9.17029 48.238 9.18687 48.5834C9.21728 48.9315 9.31126 49.194 9.44393 49.404C9.70929 49.8213 10.1322 50.0119 10.544 50.186C10.2206 50.6585 10.041 51.0315 9.99675 51.3935C9.96635 51.7582 10.0659 52.1119 10.2815 52.5401C9.93318 52.8496 9.52409 53.416 9.65401 52.1008C9.60978 52.2804 9.5158 52.6451 9.40247 53.0928C9.34996 53.3166 9.29191 53.5625 9.2311 53.8167C9.18411 54.0737 9.14265 54.3362 9.10672 54.5986C8.96298 55.6403 8.91599 56.6102 9.28085 56.682C9.0846 56.8948 9.15094 57.7071 9.21728 57.9033C9.17305 58.315 9.13712 58.6328 9.10948 58.9008C9.08184 59.1716 9.07355 59.3954 9.05973 59.6164C9.03485 60.0613 9.02379 60.5034 9.03761 61.3157L9.16476 60.8681C9.9857 61.5119 9.35272 62.2054 9.48816 63.5068L9.39971 63.4737C9.25321 64.2252 9.24492 64.6839 9.25321 64.9906C9.26427 65.2973 9.31126 65.4548 9.35272 65.6123C9.39694 65.7671 9.43564 65.9218 9.43564 66.2257C9.43564 66.3777 9.42459 66.5656 9.40247 66.8115C9.38865 67.0574 9.36378 67.3586 9.32508 67.7344L9.83091 67.5133C10.4141 67.5824 10.3284 68.2373 10.1792 69.0938C10.0576 69.9448 9.90554 71.0086 10.2732 71.8099C10.3312 71.5889 10.3975 71.3651 10.4584 71.144C10.7182 71.5668 10.4915 72.2686 10.1958 73.0146C9.90554 73.7551 9.53515 74.5426 9.60978 75.0234C9.57385 75.25 9.35825 74.7471 9.22004 74.4763C9.25045 77.0985 9.9774 74.6172 10.6408 76.3663C10.3837 76.8056 9.59043 76.2115 9.90277 77.4494C9.86131 77.7975 10.4445 78.585 11.0278 79.4941C11.3401 79.9417 11.6497 80.4225 11.8819 80.906C11.998 81.1492 12.0919 81.3923 12.1583 81.6327C12.2329 81.8703 12.2799 82.108 12.2854 82.3401C12.3932 81.8759 12.5065 81.4282 13.0594 82.1245C13.2197 82.4147 13.3275 82.7904 13.4242 83.2021C13.4712 83.4094 13.5182 83.6249 13.5652 83.8432C13.6205 84.0587 13.6758 84.277 13.7393 84.4925C13.9936 85.3491 14.3087 86.1752 15.0191 86.4626C15.0329 86.6477 14.9998 86.7389 14.9417 86.7803C15.1186 86.971 15.3314 87.2335 15.5609 87.5209C15.7903 87.8082 16.0335 88.126 16.3016 88.4133C16.8268 88.9936 17.3492 89.5075 17.7169 89.6208C17.4515 90.074 17.6174 90.5796 17.9546 91.1156C18.2973 91.6461 18.8225 92.2015 19.3753 92.6878C19.9226 93.1797 20.4312 93.6522 20.7546 94.0445C21.078 94.4341 21.183 94.7795 20.8596 95.0503C21.2134 95.4288 21.5562 95.8212 21.921 96.1887L23.0267 97.2829L22.847 97.3436C23.0101 97.5343 23.1621 97.7028 23.3114 97.8548C23.4606 98.0068 23.6099 98.1311 23.7481 98.2444C24.0273 98.471 24.2788 98.6368 24.511 98.7639C24.9781 99.0153 25.3623 99.1148 25.7576 99.1921C26.0257 99.5762 25.6691 99.4767 25.5807 99.5154C26.5619 100.588 27.1175 101.179 27.7588 101.56C28.0739 101.756 28.4028 101.917 28.7981 102.077C29.1906 102.243 29.6716 102.386 30.2852 102.563L30.1719 103.154C30.3515 103.185 30.6224 103.395 30.9734 103.713C31.3217 104.03 31.775 104.417 32.2836 104.854C32.5407 105.069 32.8116 105.293 33.099 105.511C33.3948 105.719 33.7016 105.923 34.0222 106.116C34.3429 106.31 34.6718 106.489 35.009 106.65C35.3435 106.813 35.7028 106.921 36.0566 107.017C36.0041 107.059 35.9018 107.128 35.6613 107.092C37.2313 107.556 38.7958 108.719 40.2884 109.54C40.6588 109.744 41.0209 109.932 41.3692 110.087C41.5433 110.164 41.7119 110.236 41.8805 110.294C42.0492 110.347 42.215 110.388 42.3726 110.421C43.0111 110.546 43.5666 110.479 43.9978 110.098L44.5341 110.151L45.0758 110.178L46.1511 110.228C44.8713 109.783 45.0371 109.606 45.3882 109.457C45.742 109.311 46.281 109.192 45.8055 108.885C46.3197 108.971 46.9222 109.297 47.2484 109.576C47.5773 109.836 47.6188 110.068 46.9803 109.952L46.8117 109.8C46.0737 110.72 49.9683 110.944 49.7637 111.59C52.3979 112.096 55.0183 112.496 57.6276 112.762C58.2827 112.814 58.9322 112.867 59.5818 112.919C60.2313 112.95 60.8809 112.958 61.5277 112.974C61.8511 112.977 62.1745 112.994 62.4951 112.983C62.8158 112.969 63.1364 112.958 63.457 112.944C63.7777 112.927 64.0955 112.911 64.4162 112.897C64.734 112.88 65.0519 112.861 65.367 112.82C65.1431 112.574 64.9248 112.336 64.7064 112.079C65.2869 112.041 65.8646 111.969 66.445 111.916C66.9232 112.046 67.1471 112.463 65.8894 112.59C66.246 112.775 66.7629 112.612 67.183 112.383C67.6059 112.162 67.9238 111.825 67.9293 111.742C69.1594 111.69 68.9714 111.963 68.5568 112.237C68.1422 112.51 67.5037 112.787 67.8796 112.729L68.8885 112.488L68.6425 112.436C69.0267 112.201 69.2174 111.994 69.4993 111.817C69.6403 111.728 69.8034 111.651 70.0245 111.574C70.2429 111.491 70.5193 111.411 70.8869 111.336C71.8516 111.281 71.4784 111.712 71.8516 111.656C71.8626 111.712 71.9953 111.709 72.4237 111.549C73.1507 111.383 73.8694 111.192 74.5963 111.013L73.5626 110.642C73.991 110.358 74.4885 110.225 74.7345 110.109C74.9778 109.985 74.9695 109.902 74.378 109.692C75.2431 110.007 77.2443 109.468 79.0824 108.711C79.5496 108.54 79.9891 108.319 80.4147 108.125C80.8376 107.929 81.2357 107.744 81.5922 107.581C82.2998 107.241 82.8278 106.976 83.0765 106.954C83.3281 106.694 83.5907 106.462 83.8671 106.249C84.138 106.025 84.4171 105.813 84.7157 105.616C85.3099 105.216 85.9761 104.87 86.6864 104.431C86.2663 104.541 85.6859 104.061 86.9214 103.375C87.0154 103.757 87.2199 103.892 87.5019 103.884C87.7838 103.876 88.1487 103.732 88.5301 103.516C88.9171 103.309 89.34 103.058 89.7656 102.873C89.9785 102.779 90.1941 102.701 90.4042 102.652C90.6087 102.594 90.8132 102.566 91.0095 102.582C90.382 102.627 91.1698 101.952 91.8691 101.3C92.2257 100.98 92.5325 100.632 92.6458 100.402C92.7592 100.17 92.6679 100.043 92.1981 100.118C93.1793 99.427 92.6099 100.494 93.5331 100.156C93.757 99.8636 94.0113 99.5956 94.2656 99.311C94.5199 99.0291 94.7908 98.7556 95.0755 98.4876C95.3602 98.2168 95.6642 97.957 95.9683 97.6863C96.2668 97.4099 96.5736 97.1336 96.8887 96.8546C97.2011 96.5727 97.53 96.2992 97.8423 96.0008C98.1491 95.6996 98.4615 95.3957 98.7683 95.0807C99.3957 94.4645 99.9569 93.771 100.471 93.036C100.349 92.8757 99.7495 93.1576 99.99 92.3839C100.642 92.0993 101.25 91.7705 101.886 91.4444C102.052 91.1267 101.917 90.8338 101.903 90.5381C101.894 90.3889 101.917 90.2425 102.022 90.0878C102.121 89.9303 102.298 89.7645 102.613 89.5876C102.378 89.6512 102.027 89.7396 102.229 89.3141C104.526 86.6671 106.016 83.3652 107.215 80.0191C108.426 76.6536 109.363 73.2605 110.811 69.873C110.27 70.7655 110.347 70.1217 110.46 69.3978C110.289 69.8537 109.988 69.3149 109.711 69.3674C109.899 68.9032 110.079 68.4307 110.264 67.9582C110.441 67.4829 110.646 67.0104 110.798 66.5269C110.455 66.223 110.502 65.4327 110.552 64.6729C110.582 64.2916 110.588 63.9185 110.549 63.6201C110.51 63.3217 110.427 63.0979 110.256 63.015L110.358 63.9489C109.96 63.3134 109.498 63.7334 108.984 64.2556C108.456 64.7806 107.89 65.4051 107.367 65.2752C107.577 65.6178 107.577 66.0047 107.481 66.4164C107.373 66.8281 107.146 67.2619 106.942 67.7206C106.837 67.9499 106.737 68.1848 106.651 68.4251C106.569 68.6683 106.497 68.9142 106.439 69.1657C106.334 69.6741 106.345 70.2101 106.58 70.8014C106.284 71.2242 106.314 70.34 106.03 70.5417C106.397 71.1578 106.323 71.821 105.855 72.9511L105.778 72.7908C105.737 72.9981 105.695 73.1998 105.654 73.3932C105.607 73.5866 105.551 73.769 105.502 73.9458C105.397 74.3022 105.294 74.6366 105.187 74.9543C104.985 75.5954 104.728 76.1618 104.462 76.7365C104.327 77.0211 104.191 77.3112 104.05 77.6096C103.912 77.9081 103.735 78.2065 103.57 78.527C103.227 79.1653 102.873 79.8809 102.403 80.6988L102.997 80.6573C102.597 81.373 102.378 81.4586 102.105 81.7488C102.436 82.9424 103.086 79.6847 103.536 80.8176C103.18 80.9613 102.854 81.3564 102.541 81.8759C102.229 82.3953 101.881 83.0115 101.557 83.6304C101.474 83.7852 101.391 83.9371 101.311 84.0891C101.226 84.2383 101.134 84.3792 101.046 84.5174C100.869 84.7937 100.689 85.0507 100.512 85.2689C100.159 85.7055 99.8104 85.9956 99.4483 85.9846C98.7711 87.0263 100.161 85.9956 99.4814 87.0428L99.0281 87.1451L99.2105 87.6424C98.9645 87.974 98.6854 88.1591 98.4421 88.2448C98.2017 88.3332 97.9971 88.3249 97.8727 88.2558C98.0137 88.1149 98.1325 87.7557 98.2348 87.5733C97.7705 87.8911 97.3724 88.5073 97.0463 89.0792C96.7201 89.6484 96.4271 90.143 96.2723 90.248C96.5681 89.9772 96.8721 89.712 97.1651 89.4329C96.9412 89.7921 96.6897 90.1485 96.4299 90.5105C96.1645 90.867 95.913 91.2455 95.6089 91.5881C95.0119 92.2817 94.4204 93.0111 93.7653 93.6798C93.4447 94.0196 93.1295 94.3623 92.8172 94.7049C92.491 95.0337 92.1732 95.3625 91.8664 95.6968C91.2666 96.3766 90.6502 97.0038 90.136 97.6752L90.4871 97.7001C90.2825 97.9515 90.1056 98.1587 89.9426 98.3301C89.7739 98.4931 89.6219 98.6257 89.4809 98.7335C89.2018 98.9518 88.9696 99.0816 88.7263 99.2087C88.4803 99.3331 88.2371 99.4712 87.9054 99.6674C87.5737 99.8636 87.1729 100.143 86.6367 100.59L86.6864 100.483C86.3824 101.019 85.8102 101.516 85.1524 101.908C85.5863 101.287 83.7455 102.143 84.348 101.375C84.2209 101.494 84.1076 101.599 84.0025 101.698C83.8947 101.792 83.798 101.875 83.7123 101.95C83.5382 102.102 83.4055 102.223 83.3032 102.325C83.0959 102.53 83.0047 102.654 82.9439 102.773C82.8831 102.895 82.8554 103.011 82.7725 103.207C82.6868 103.4 82.5514 103.679 82.2446 104.086L81.6779 103.917C81.4872 104.224 81.3987 104.428 81.2108 104.646C81.0201 104.862 80.7326 105.113 80.1051 105.445C81.0062 104.652 79.0272 105.246 80.0001 104.298C79.2428 104.395 78.6485 104.602 78.1482 104.854C77.6423 105.091 77.2222 105.354 76.8435 105.6C76.4621 105.837 76.1304 106.069 75.7711 106.152C75.4145 106.241 75.0496 106.224 74.6323 106.02C74.1817 106.771 74.823 106.719 75.5112 106.536C76.2023 106.368 76.8988 105.992 76.592 106.252C76.9513 106.31 76.7689 106.608 76.3764 106.926C75.9784 107.227 75.362 107.526 74.9031 107.622C74.4471 107.766 73.955 107.553 73.2972 107.36C72.9683 107.269 72.6034 107.189 72.1805 107.172C71.9677 107.164 71.7438 107.172 71.5005 107.202C71.2545 107.222 70.9919 107.26 70.71 107.329C70.9367 107.282 70.9311 107.197 71.1578 107.15C70.699 107.106 70.3092 107.296 69.8863 107.473C69.6762 107.562 69.4551 107.644 69.2174 107.691C68.9769 107.727 68.7199 107.727 68.4352 107.658C67.968 108.437 67.0669 107.863 67.0338 108.758L69.1234 108.18C68.5457 108.399 68.0178 108.813 67.3627 109.156C66.7104 109.496 65.9171 109.706 64.875 109.595C65.016 109.399 65.5881 109.092 65.9806 108.913C65.6711 108.822 65.3947 108.899 65.1155 108.979C64.8363 109.056 64.5516 109.139 64.2337 109.023C64.2559 108.799 64.43 108.675 64.6926 108.57C64.9552 108.468 65.3117 108.404 65.7015 108.343C66.0912 108.283 66.5196 108.227 66.9204 108.128C67.3185 108.012 67.6944 107.863 67.9818 107.642C67.6419 107.509 67.0752 107.788 66.6385 107.932C66.2018 108.073 65.9143 108.125 66.1714 107.614C65.7955 108.269 65.215 108.305 64.5627 108.313C63.9021 108.294 63.1751 108.236 62.415 108.755L62.4896 108.225C62.2491 108.335 61.7461 108.595 61.2845 108.589L62.0805 107.89C61.4641 108.194 60.8477 108.084 60.2452 107.94C59.6426 107.81 59.0594 107.578 58.454 107.727C59.7117 107.755 59.8527 107.91 59.814 108.114C59.7753 108.324 59.5458 108.587 60.0904 108.763C59.6951 108.868 59.3689 108.893 59.0925 108.902C58.8189 108.904 58.5978 108.877 58.4098 108.827C58.0366 108.725 57.8045 108.534 57.564 108.33C57.3235 108.131 57.0747 107.89 56.674 107.711C56.2704 107.528 55.7121 107.415 54.8441 107.396C55.314 107.374 56.5772 107.846 55.8226 108.037C55.4937 107.954 55.115 107.863 54.775 107.719C54.435 107.575 54.131 107.418 53.9486 107.255C51.6516 107.075 54.2305 107.835 53.2105 108.031C52.514 107.313 52.0469 108.114 50.9827 108.139L51.0739 107.614C50.756 107.515 50.5017 107.454 50.3 107.423C50.0982 107.385 49.9462 107.376 49.8273 107.39C49.5868 107.418 49.479 107.534 49.3795 107.65C49.1805 107.879 49.0119 108.109 47.8759 107.633L49.0451 107.144C48.6277 107.108 48.202 107.092 47.7846 107.039L48.1827 106.52C47.4778 106.561 47.03 106.514 46.6044 106.401C46.3915 106.343 46.187 106.268 45.9576 106.174C45.7282 106.081 45.4821 105.945 45.1836 105.801C45.3605 106.257 44.7193 106.666 43.5777 106.299C42.9254 105.724 44.1692 105.995 42.5799 105.453C42.8176 105.368 43.0663 105.265 43.3206 105.274C43.4478 105.276 43.5749 105.312 43.7021 105.387C43.832 105.456 43.9619 105.569 44.0918 105.743C44.2217 105.603 44.5534 105.547 44.6806 105.409C43.984 104.818 42.7015 104.583 42.1404 104.373C42.3477 104.475 42.5909 104.602 42.6932 104.724C42.2786 104.691 41.8557 104.663 41.4355 104.622L40.1834 104.461C39.918 104.121 40.2635 104.102 40.598 104.08C40.3631 104.005 40.1447 103.989 39.8987 103.961C39.6527 103.931 39.3763 103.895 39.0473 103.746C39.4039 103.439 39.5559 103.036 40.5538 103.254C39.7937 103.105 39.0584 102.889 38.3066 102.687C38.2817 102.569 38.0827 102.323 37.9334 102.104C37.7814 101.892 37.6929 101.684 37.856 101.69C37.3806 101.264 36.6149 101.077 35.8023 100.831C35.4043 100.695 34.9952 100.549 34.6082 100.361C34.224 100.173 33.8509 99.9548 33.5634 99.637C33.4445 99.6563 33.2566 99.6204 32.9304 99.4657C32.6236 99.217 32.3417 98.9545 32.0625 98.6893C31.7944 98.413 31.5318 98.1311 31.2498 97.8631C30.9679 97.5951 30.6611 97.3436 30.3183 97.106C29.9839 96.8573 29.6052 96.6335 29.1547 96.4401C29.0635 96.0091 28.9584 95.6029 28.8866 95.1663C28.3061 94.7353 28.3918 95.1553 28.389 95.5089C28.3835 95.8626 28.2867 96.1472 27.2944 95.4039C26.5758 94.89 26.573 94.6607 26.7195 94.4866C26.8632 94.3125 27.1452 94.1992 27.0153 93.9064C26.5841 93.735 25.9649 93.5168 25.3679 93.1382C24.7791 92.7541 24.2484 92.1767 23.9665 91.3754C24.4225 91.6793 24.605 92.0634 24.9698 92.3977V92.3949ZM15.547 77.0377C15.6576 77.1869 15.8483 77.3969 15.9865 77.6124C16.1358 77.8252 16.2298 78.0435 16.1303 78.2175C15.7709 78.1402 15.63 77.9992 15.5719 77.8058C15.5194 77.6069 15.5609 77.3499 15.547 77.0377ZM13.192 49.4704C13.2888 49.7743 13.1202 50.1556 12.8161 50.5701C12.8521 50.2274 12.9516 49.8517 13.192 49.4704ZM76.6031 12.6771C76.5837 12.6798 76.5726 12.6826 76.5561 12.6881C75.7959 12.2129 76.0641 12.3897 76.6031 12.6771ZM78.22 13.5115C78.4163 13.5087 78.4301 13.4341 78.3859 13.3374C78.22 13.4176 77.8414 13.2739 77.424 13.0749C77.4986 13.249 77.6783 13.4259 78.22 13.5115ZM72.0064 111.43L71.6332 111.372C72.3629 111.046 72.1805 111.231 72.0064 111.43Z" fill="white"/>
<path d="M13.2116 52.7501C13.1065 52.833 13.0015 52.8413 12.8992 52.8468C12.9628 53.0015 13.0651 53.0236 13.2116 52.7501Z" fill="white"/>
<path d="M33.5221 99.5955C33.5359 99.6093 33.5497 99.6176 33.5636 99.6314C33.605 99.6231 33.6382 99.6038 33.6631 99.5844L33.5221 99.5955Z" fill="white"/>
<path d="M51.5771 15.3102C51.2316 15.2936 51.0271 15.2301 50.8834 15.1555C50.8889 15.2881 51.063 15.3682 51.5771 15.3102Z" fill="white"/>
<path d="M87.2339 16.9708C86.8829 16.794 86.5152 16.6448 86.1559 16.4901C86.659 16.7526 86.7778 16.946 86.9713 17.1753C87.0155 17.0565 86.9216 16.7802 87.2339 16.9708Z" fill="white"/>
<path d="M93.0827 25.5447C93.243 25.6083 93.3343 25.7741 93.4946 25.8348L93.6328 25.6248C93.1214 25.1607 92.6405 24.9783 93.0827 25.5447Z" fill="white"/>
<path d="M87.1869 19.0431C87.104 19.2559 87.2311 19.4244 87.4661 19.5875C87.5849 19.6676 87.7314 19.7477 87.8918 19.8279C88.0493 19.9135 88.2179 20.0075 88.3921 20.1042C88.3534 20.0793 88.3147 20.0544 88.2787 20.024C88.5524 19.8334 88.486 19.6593 88.2511 19.4908C88.0134 19.325 87.596 19.1896 87.1869 19.0459V19.0431Z" fill="white"/>
<path d="M88.5496 20.1981C88.7597 20.3225 88.9697 20.4579 89.1522 20.6126C89.3761 20.4634 88.9393 20.3971 88.5496 20.1981Z" fill="white"/>
<path d="M80.4508 14.1055C80.7549 14.3708 80.9041 13.68 81.0285 13.937C81.3436 13.7656 80.6803 13.6551 80.2021 13.6662C79.9644 13.6662 79.7681 13.7159 79.7626 13.785C79.7598 13.8513 79.9395 13.9535 80.4508 14.1027V14.1055Z" fill="white"/>
<path d="M86.9077 20.6209L86.9796 20.0102L86.3715 20.1484L86.9077 20.6209Z" fill="white"/>
<path d="M81.8218 17.214L82.8556 17.9158C82.8832 17.8246 83.0491 17.8495 83.2398 17.902C82.5681 17.5373 81.8688 17.0565 81.8218 17.2167V17.214Z" fill="white"/>
<path d="M83.2426 17.902C83.5908 18.0982 83.9198 18.286 84.1575 18.3137C83.9668 18.2142 83.5577 17.9876 83.2426 17.902Z" fill="white"/>
<path d="M85.4041 19.8555C85.3212 19.7588 85.241 19.6566 85.1581 19.5626L84.4256 19.0957C84.7518 19.3499 85.0917 19.582 85.4041 19.8555Z" fill="white"/>
<path d="M69.2369 12.829L67.8742 12.7461C67.7084 12.9091 68.0511 13.0887 68.557 13.1025C68.8969 13.0279 69.4083 13.0445 69.2369 12.829Z" fill="white"/>
<path d="M72.8219 15.2411C72.5096 15.0339 72.5207 14.9068 72.3714 14.6747L72.1558 15.3268L72.8219 15.2411Z" fill="white"/>
<path d="M69.0572 14.4979C68.8859 14.6609 67.0947 14.7024 68.7255 14.951C68.8085 14.8709 69.1789 14.846 69.3862 14.8018C69.4884 14.7825 69.552 14.7549 69.5161 14.7079C69.4801 14.6581 69.3502 14.5863 69.06 14.4979H69.0572Z" fill="white"/>
<path d="M49.2277 13.8513L49.5566 13.7656L49.2747 12.677L49.2277 13.8513Z" fill="white"/>
<path d="M34.4287 22.9391C35.8356 22.3616 34.3541 22.1544 35.6836 21.7178C35.7693 21.5189 35.4874 21.588 35.222 21.6902C34.9539 21.7869 34.6885 21.8864 34.7798 21.6902C34.1551 22.4252 33.6686 22.5468 34.426 22.9419L34.4287 22.9391Z" fill="white"/>
<path d="M34.7825 21.6875C34.882 21.5714 34.9871 21.4388 35.0893 21.2868C34.9014 21.4913 34.824 21.6046 34.7825 21.6875Z" fill="white"/>
<path d="M111.525 64.5789C111.638 64.2252 111.71 63.866 111.804 63.5095L111.409 64.192C111.456 64.3219 111.486 64.4518 111.528 64.5816L111.525 64.5789Z" fill="white"/>
<path d="M110.759 62.4927L111.483 62.2523L110.85 61.6058C110.875 61.8462 110.928 62.3131 110.759 62.4927Z" fill="white"/>
<path d="M16.1194 74.0618L15.9342 74.0397C15.7932 74.2331 15.843 74.4514 15.9342 74.8879L16.1194 74.0618Z" fill="white"/>
<path d="M20.8653 85.99L20.7575 85.7939L20.4341 86.4929L20.8653 85.99Z" fill="white"/>
<path d="M28.2648 93.8344C28.1183 93.6714 27.9193 93.536 27.7341 93.3841C27.5489 93.2321 27.3637 93.0801 27.2227 92.9116C27.9497 93.525 27.7866 94.4893 28.262 93.8344H28.2648Z" fill="white"/>
<path d="M43.6213 53.7423C42.7904 48.2907 42.2364 44.4014 40.09 40.6736C43.6608 40.0111 48.2077 42.5391 47.7197 42.1337C46.0019 40.7098 43.5817 39.7177 41.4451 39.6386C40.7329 39.6123 39.4008 39.698 38.5699 39.9781C38.5699 39.9781 39.6745 41.9195 39.9713 42.5721C42.4837 48.0929 42.0683 54.6059 45.2105 59.9388C45.5337 60.486 43.9774 56.0726 43.6213 53.7423Z" fill="white"/>
<path d="M39.0546 64.9751C39.0546 64.9751 37.6072 63.5414 36.0278 61.6758C35.431 60.9738 33.6076 58.5841 33.2977 58.2249C32.048 56.7746 30.8973 55.9902 29.2685 55.1068C31.9129 52.4766 35.0881 52.1965 34.455 52.1932C32.9317 52.18 31.4908 52.5458 30.2049 53.2545C29.6279 53.5742 28.2167 54.5861 27.4451 55.6045C27.4451 55.6045 29.9345 56.1649 33.024 59.3126C33.5219 59.8202 35.3782 62.0021 35.8267 62.4405C36.8059 63.393 37.9006 64.2203 39.0513 64.9784L39.0546 64.9751Z" fill="white"/>
<path d="M54.1889 54.6652C54.3867 49.6157 56.0386 44.8562 59.4578 40.5615C62.877 44.8595 64.5289 49.619 64.7267 54.6652C64.8487 57.8063 63.8299 62.9909 64.0475 62.3944C65.0334 59.7147 65.5511 56.3725 65.4851 54.0192C65.3268 48.4324 63.2331 42.994 59.4578 38.6828C55.6825 42.994 53.5888 48.4324 53.4305 54.0192C53.3645 56.3758 53.8822 59.7147 54.8681 62.3944C55.0857 62.9909 54.0669 57.8063 54.1889 54.6652Z" fill="white"/>
<path d="M78.8224 40.6736C76.6759 44.4047 76.1219 48.2907 75.291 53.7423C74.9349 56.0726 73.3787 60.4827 73.7018 59.9388C76.8473 54.6059 76.4286 48.0929 78.9411 42.5721C79.2378 41.9162 80.3424 39.9781 80.3424 39.9781C79.5115 39.698 78.1761 39.6123 77.4672 39.6386C75.3306 39.7177 72.9137 40.7098 71.1926 42.1337C70.7046 42.5391 75.2515 40.0111 78.8224 40.6736Z" fill="white"/>
<path d="M88.7041 53.2545C87.4149 52.5458 85.9773 52.18 84.454 52.1932C83.821 52.1998 86.9962 52.4799 89.6405 55.1068C88.0117 55.9902 86.861 56.7746 85.6113 58.2249C85.3014 58.5841 83.4781 60.9705 82.8813 61.6758C81.3019 63.5414 79.8544 64.9751 79.8544 64.9751C81.0051 64.217 82.0998 63.3897 83.0791 62.4372C83.5275 62.0021 85.3838 59.8169 85.8817 59.3093C88.9712 56.1616 91.4606 55.6012 91.4606 55.6012C90.6891 54.5861 89.2812 53.5709 88.7008 53.2512L88.7041 53.2545Z" fill="white"/>
<path d="M59.4545 84.8369C56.7607 82.032 56.0584 80.9443 56.2826 81.4882C57.008 83.2483 58.0697 84.9292 59.4545 86.33C60.8393 84.9292 61.901 83.2483 62.6264 81.4882C62.8506 80.9443 62.145 82.032 59.4545 84.8369Z" fill="white"/>
<path d="M92.6476 58.6632C93.4917 58.2084 96.0536 57.2229 96.0536 57.2229C95.6679 56.0858 94.8106 54.3422 94.1247 53.4852C91.1408 49.7673 85.6872 48.5807 80.9392 49.1279C81.4305 46.2109 82.1031 43.1159 84.1375 41.2207C84.7343 40.6637 86.9236 39.1673 86.8412 39.0882C86.0697 38.3301 84.7804 37.6379 84.2826 37.3973C77.9453 34.3122 70.886 37.2127 65.9632 41.8799C64.0179 38.2774 61.6142 34.8956 59.4545 31.3986C57.2915 34.8956 54.8879 38.2807 52.9458 41.8799C48.0198 37.2127 40.9604 34.3122 34.6265 37.3973C34.1319 37.6379 32.8394 38.3301 32.0678 39.0882C31.9854 39.1706 34.1781 40.667 34.7716 41.2207C36.8059 43.1192 37.4819 46.2109 37.9699 49.1279C33.2219 48.5807 27.7683 49.7706 24.7843 53.4852C24.0952 54.3422 23.2412 56.0858 22.8554 57.2229C22.8554 57.2229 25.4174 58.2084 26.2614 58.6632C28.4607 59.8498 30.284 61.6461 32.0349 63.571C28.9091 64.5071 26.3307 66.8242 25.0843 69.8104C24.5799 71.02 24.3491 72.3022 24.2106 73.113C24.2106 73.113 27.4946 73.1427 28.464 73.2415C31.3655 73.5316 33.9637 74.5962 36.651 76.1552C37.2148 76.4815 37.7819 76.7881 38.3556 77.0781C37.0862 78.2416 36.2091 79.6952 35.8069 81.3399C35.6651 81.9233 35.4541 83.3999 35.4211 84.804C35.4211 84.804 37.6204 84.3821 38.4414 84.3294C41.2803 84.1382 44.0104 84.7974 46.9086 84.3063C49.0551 83.9437 51.0038 83.0274 52.6721 81.709C52.7381 83.1263 53.7437 84.6326 54.1955 85.3709C55.6495 87.7572 57.7301 89.9985 59.4545 91.9728C61.179 89.9985 63.2562 87.7572 64.7136 85.3709C65.1653 84.6326 66.1709 83.1296 66.2369 81.709C67.9053 83.0274 69.8539 83.9437 72.0004 84.3063C74.8987 84.7974 77.6288 84.1382 80.4677 84.3294C81.2854 84.3854 83.4879 84.804 83.4879 84.804C83.4583 83.4032 83.2472 81.9233 83.1022 81.3399C82.6999 79.6952 81.8228 78.2416 80.5534 77.0781C81.1238 76.7881 81.6942 76.4815 82.2581 76.1552C84.9486 74.5962 87.5435 73.5316 90.4484 73.2415C91.4177 73.146 94.7018 73.113 94.7018 73.113C94.56 72.3022 94.3325 71.02 93.828 69.8104C92.5817 66.8275 89.9999 64.5104 86.8775 63.571C88.6283 61.6461 90.4549 59.8465 92.6509 58.6632H92.6476ZM84.4639 39.1673C78.918 42.5391 79.4587 51.4812 77.6947 57.0152C75.3273 64.4412 69.4517 70.0411 61.9505 71.699C68.1031 66.2441 71.064 57.5789 69.0131 49.4179C68.4691 47.2491 67.6514 45.2089 66.6754 43.2412C71.3904 38.607 78.308 35.5779 84.4639 39.164V39.1673ZM59.4545 34.1211C62.0165 38.106 64.707 42.0381 66.4776 46.4449C70.1639 55.6177 67.3283 66.0826 59.4545 71.821C51.5775 66.0859 48.7452 55.6177 52.4314 46.4449C54.2021 42.0381 56.8926 38.1093 59.4545 34.1211ZM34.4451 39.1673C40.601 35.5812 47.5186 38.6103 52.2336 43.2445C51.2576 45.2122 50.4399 47.2524 49.8959 49.4212C47.845 57.5822 50.8059 66.2441 56.9585 71.7023C49.4541 70.0411 43.5817 64.4445 41.2143 57.0185C39.4503 51.4845 39.991 42.5424 34.4451 39.1706V39.1673ZM24.7447 56.4187C26.8121 51.3395 33.2219 49.8925 38.2171 50.6341C38.3095 51.2076 38.7975 53.6731 38.959 54.3652C39.7207 57.6118 40.7989 60.7991 42.6486 63.5974C45.6952 68.2052 50.3344 71.4221 55.5704 72.8559C49.2496 73.7261 42.6453 71.9759 37.7588 67.7339C36.5125 66.6528 34.5309 64.6422 33.4626 63.2513C30.9567 60.4134 28.4277 57.6283 24.7447 56.4187ZM50.9345 81.1322C49.0485 82.3781 46.8427 83.067 44.4951 82.9978C41.8606 82.922 39.5624 82.5726 37.0598 82.9879C37.1686 80.9246 38.1281 79.0294 39.7932 77.7769C39.7965 77.7736 39.7998 77.7703 39.8064 77.767C41.6364 78.5646 43.5356 79.1381 45.593 79.3754C48.2209 79.6787 50.9279 79.4414 53.3745 78.5844C52.926 79.5205 51.6401 80.6708 50.9378 81.1355L50.9345 81.1322ZM41.333 76.8474C38.5963 75.8256 36.2982 73.9733 33.5945 72.8922C31.1611 71.9165 28.6025 71.5672 26.0043 71.7089C26.9176 68.2514 29.6411 65.6113 33.1427 64.807C35.2101 67.134 37.2643 69.494 39.8163 71.0563C45.1908 74.349 51.7193 75.3378 57.8224 73.9502C53.8789 78.5218 46.7405 78.8613 41.333 76.8441V76.8474ZM63.0815 84.9424C61.9571 86.5904 60.7338 88.1626 59.4545 89.6887C58.1752 88.1626 56.9519 86.5871 55.8276 84.9424C55.0494 83.8053 54.2284 82.4276 54.2812 80.9641C54.3273 79.6259 54.8648 78.6437 55.7814 77.6879C56.4112 77.032 58.4917 75.3147 59.4578 74.2205C60.4239 75.3147 62.5044 77.032 63.1342 77.6879C64.0508 78.6437 64.585 79.6259 64.6344 80.9641C64.6872 82.4276 63.8629 83.8053 63.0881 84.9424H63.0815ZM81.8492 82.9846C79.3466 82.5693 77.0485 82.9187 74.414 82.9945C72.0631 83.0604 69.8605 82.3748 67.9745 81.1289C67.2722 80.6642 65.9863 79.5139 65.5379 78.5778C67.9877 79.4348 70.6914 79.6721 73.3193 79.3689C75.3735 79.1315 77.276 78.558 79.1059 77.7604C79.1092 77.7637 79.1125 77.767 79.1191 77.7703C80.7842 79.0261 81.7437 80.918 81.8525 82.9813L81.8492 82.9846ZM92.9015 71.7056C90.3033 71.5606 87.7446 71.9133 85.3113 72.8889C82.6076 73.97 80.3094 75.8256 77.5727 76.8441C72.1653 78.8613 65.0301 78.5218 61.0833 73.9502C67.1865 75.3378 73.715 74.3457 79.0894 71.0563C81.6415 69.494 83.6957 67.134 85.763 64.807C89.2614 65.6113 91.9882 68.2514 92.9015 71.7089V71.7056ZM85.4432 63.248C84.3749 64.6389 82.3933 66.6495 81.1469 67.7306C76.2604 71.9726 69.6561 73.7228 63.3353 72.8526C68.568 71.4188 73.2105 68.2019 76.2571 63.5941C78.1069 60.7958 79.1818 57.6085 79.9467 54.3619C80.1083 53.6698 80.5963 51.2043 80.6886 50.6308C85.6839 49.8859 92.0937 51.3362 94.161 56.4154C90.478 57.6283 87.9458 60.4101 85.4432 63.248Z" fill="white"/>
</svg>
