<svg width="32" height="32" viewBox="0 0 32 32" fill="none" xmlns="http://www.w3.org/2000/svg">
<mask id="mask0_31_1275" style="mask-type:alpha" maskUnits="userSpaceOnUse" x="0" y="0" width="32" height="32">
<path d="M31.3527 0H0.217529V32H31.3527V0Z" fill="white"/>
</mask>
<g mask="url(#mask0_31_1275)">
<path d="M16.2175 1.21777C8.05464 1.21777 1.43506 7.83736 1.43506 16.0002C1.43506 24.1631 8.05464 30.7827 16.2175 30.7827C24.3804 30.7827 31 24.1631 31 16.0002C31 7.83736 24.3804 1.21777 16.2175 1.21777ZM22.967 12.7436C22.9735 12.889 22.9767 13.0352 22.9767 13.182C22.9767 17.6656 19.564 22.8357 13.3229 22.8359H13.3231H13.3229C11.4067 22.8359 9.62367 22.2743 8.12208 21.3118C8.38756 21.3431 8.65779 21.3587 8.93139 21.3587C10.5211 21.3587 11.9842 20.8165 13.1456 19.9063C11.6603 19.8788 10.408 18.8979 9.97574 17.5496C10.1826 17.5894 10.3953 17.611 10.6134 17.611C10.9231 17.611 11.2231 17.5692 11.5082 17.4915C9.9557 17.1806 8.78613 15.8085 8.78613 14.1655C8.78613 14.1502 8.78613 14.1364 8.78658 14.1222C9.2438 14.3764 9.76665 14.5294 10.3234 14.5465C9.41229 13.9386 8.81343 12.8995 8.81343 11.7222C8.81343 11.1006 8.98147 10.5182 9.2729 10.0167C10.9461 12.0698 13.4467 13.42 16.2667 13.5619C16.2085 13.3134 16.1785 13.0544 16.1785 12.7883C16.1785 10.9152 17.6981 9.39554 19.5719 9.39554C20.5478 9.39554 21.4293 9.80811 22.0485 10.4677C22.8215 10.3152 23.5473 10.0327 24.2031 9.64411C23.9493 10.436 23.4116 11.1006 22.711 11.5208C23.3974 11.4387 24.0515 11.2566 24.6594 10.9864C24.2053 11.6669 23.6295 12.2647 22.967 12.7436Z" fill="#1D2826"/>
</g>
</svg>
